<?xml version="1.0" encoding="utf-8"?>
<!-- Generator: Adobe Illustrator 27.3.1, SVG Export Plug-In . SVG Version: 6.00 Build 0)  -->
<svg version="1.1" id="Layer_1" xmlns="http://www.w3.org/2000/svg" xmlns:xlink="http://www.w3.org/1999/xlink" x="0px" y="0px"
	 viewBox="0 0 2287.7 1477.7" style="enable-background:new 0 0 2287.7 1477.7;" xml:space="preserve">
<style type="text/css">
	.st0{display:none;opacity:0.2;}
	.st1{fill:#FECB8B;}
	.st2{fill:#0063A7;}
	.st3{fill:#603913;}
	.st4{fill:#FFFFFF;}
	.st5{fill:#D9272D;}
	.st6{opacity:0.2;}
	.st7{font-family:'Roboto-Bold';}
	.st8{font-size:24.2934px;}
	.st9{fill:none;stroke:#000000;stroke-miterlimit:10;}
	.st10{font-family:'Bebas';}
	.st11{font-size:77.927px;}
</style>
<path class="st0" d="M1264,654.4l0.1-15.1H1249c-10.8,0-19.7-8.8-19.7-19.7v-39.5l-93.7-25.6c-4.9,11.3-14.2,19.9-25.6,24.1
	l89.3,24.5v16.5c0,21.2,13.4,39.4,32.2,46.5h32C1264,659.2,1264,655,1264,654.4z"/>
<path class="st0" d="M1194,863.3c20.6-25.5,37.2-56.6,49.2-92.7c2.1-6.1,3.9-12.2,5.6-18.1h-31.3c-0.9,3.1-1.9,6.2-3,9.4
	c-24,71.3-62.8,118.4-120,139.8c0,0,0,0,0,0v30.1c0,0,0,0,0,0C1132.8,918.6,1167.9,895.6,1194,863.3z"/>
<g>
	<g>
		<path class="st1" d="M1073.5,980.8c-5.5,0-10.1-2.5-13.2-7c-6.2-9.2-4.1-16.6-1.2-21.1c4.4-6.9,8.8-13.9,13.2-20.8
			c3.7-5.8,7.4-11.7,11-17.5l7.1-11.2c11.1-17.6,22.6-35.7,34-53.6c-41.5-67.8-82.7-135.1-131.7-215.2c-9.2-15-18.3-30-27.5-45
			l-0.6-1.1c-13.6-22.2-27.1-44.4-40.7-66.6c-5.6-9.2-2.1-16.7,3-20.7c2.9-2.2,6-3.4,9.2-3.4c3.5,0,8.4,1.3,12.4,7.5
			c7.3,11.5,14.6,23,21.9,34.5l8.5,13.4c36.4,57.6,72.8,115.2,109.2,172.8c11.7,18.5,57.3,90.6,57.3,90.6l14.1-22.3l142.8-225.9
			c12.2-19.3,24.4-38.5,36.6-57.8c4.3-6.8,9.5-8.3,13.1-8.3c2.9,0,5.7,0.9,8.4,2.7c5.5,3.6,9.8,11.4,3.7,21.4
			c-22.9,37.5-45.8,74.9-68.7,112.4c-34.9,57-122.1,199.7-122.1,199.7c-0.7,1.2-1.4,2.4-2.2,3.6l-0.1,0.1c-1.5,2.5-3.1,5.1-4.7,7.7
			c12.7,19.9,25.3,39.9,37.6,59.3l11.1,17.5l4.2,6.7c2.9,4.6,5.8,9.2,8.7,13.8c5.8,9.2,3.6,21.6-4.7,26.9c-2.6,1.6-5.7,2.5-9,2.5
			c-7.2,0-14.6-4-18.2-9.8c-4.1-6.7-8.2-13.4-12.2-20l-0.6-1c-1.6-2.7-3.3-5.4-4.9-8c-10.9-17.9-21.9-35.8-32.8-53.7l-1.1,1.8
			c-6.6,10.8-13.2,21.5-19.7,32.1c-10.8,17.7-21.4,35-31.7,52c-3.1,5.1-7.4,8.4-12.9,10C1077.5,980.5,1075.4,980.8,1073.5,980.8z"/>
		<path class="st2" d="M1357.4,509c-1.8-1.2-3.7-1.8-5.6-1.8c-3.4,0-6.4,2-8.9,5.9c-12.2,19.3-24.4,38.5-36.6,57.8l-142.8,226
			l-18.3,29l-26.4-41.8c-11.7-18.5-23.4-37-35.1-55.5c-37.7-59.7-75.4-119.3-113.1-178.9l-4.4-7c-7.3-11.6-14.6-23.2-22-34.7
			c-2.2-3.5-4.9-5.2-8.2-5.2c-2.1,0-4.2,0.8-6.2,2.3c-2.7,2-6.4,6.6-1.8,14.1c13.8,22.6,27.6,45.1,41.4,67.7c9.2,15,18.3,30,27.5,45
			c49.5,80.9,91,148.9,133.2,217.7c0.1,0.1,0.1,0.2,0.1,0.2c0,0,0,0,0,0c-11.9,18.7-24,37.8-35.6,56.2l-7.1,11.2
			c-3.7,5.8-7.4,11.7-11,17.5c-4.4,7-8.8,13.9-13.2,20.8c-3,4.8-2.7,10.1,1.1,15.7c2.1,3.1,5.2,4.8,9,4.8c1.5,0,3.1-0.2,4.9-0.8
			c4.3-1.3,7.6-3.8,10-7.8c10.2-16.8,20.4-33.5,31.7-52c6.7-10.9,13.4-21.8,20.2-32.9l4.9-8c12.4,20.2,24.7,40.4,37.1,60.7
			c1.8,3,3.7,6.1,5.5,9.1c4,6.5,8.1,13.3,12.2,19.9c2.7,4.4,8.5,7.5,14,7.5c2.4,0,4.6-0.6,6.3-1.7c6-3.9,7.5-13.2,3.2-20.1
			c-2.9-4.6-5.8-9.2-8.7-13.8l-4.2-6.7l-11.1-17.5c-12.7-20-25.7-40.7-38.7-61c-0.4-0.7-0.5-1-0.6-1c0-0.1,0.1-0.3,0.4-0.8
			c2.1-3.1,4-6.3,5.9-9.4c0.7-1.2,1.5-2.5,2.2-3.7c0,0,87.2-142.6,122.1-199.7c22.9-37.4,45.8-74.9,68.7-112.4
			C1364.9,514.9,1359.3,510.2,1357.4,509z M1166.2,827.1c-1.4,2.4-2.3,3-4.9,1.3c-7-4.5-7-4.3-2.6-11.3c36-56.9,72-113.8,108-170.8
			c24.3-38.5,48.7-77.1,73.1-115.6c0.6-1,0.9-3.6,3.2-2.2c1.3,0.8,3.3,1,3.7,3.1c-0.4,0.8-0.9,1.6-1.3,2.4
			c-46.9,76.7-93.8,153.4-140.7,230C1191.8,785,1179,806,1166.2,827.1z M942.4,529.7c-1.7-2.7-0.2-5.5,4.1-5.8
			c0.6,0,0.8,1.5,1.5,2.5c11.7,18.5,23.4,37,35.1,55.5c47,74.4,94.1,148.9,141.1,223.3c2.6,4.1,5,8.2,7.8,12.2
			c1.3,1.9,0.9,2.7-1,3.9c-7.5,4.8-7.5,4.8-12.2-2.9c-45.5-74.5-91-148.9-136.6-223.4C969,573.2,955.7,551.5,942.4,529.7z"/>
		<path class="st3" d="M1354.7,513.2c-2.9-1.9-5.2-1.1-7.5,2.6c-12.2,19.3-24.4,38.5-36.6,57.8c-47.6,75.3-95.2,150.6-142.8,226
			c-7.4,11.7-14.7,23.3-22.5,35.5c-1.1-1.6-1.8-2.7-2.5-3.8c-21.1-33.4-42.2-66.7-63.2-100.1c-37.9-59.9-75.7-119.8-113.6-179.7
			c-8.6-13.6-17.3-27.3-25.9-40.9c-2.1-3.3-4.3-3.7-7.1-1.6c-2.9,2.2-2.3,4.8-0.6,7.5c23,37.5,45.9,75.1,68.9,112.7
			c44.4,72.6,88.7,145.1,133.2,217.7c1.2,2,1.4,3.4,0.1,5.6c-14.3,22.4-28.5,44.9-42.7,67.3c-8.1,12.8-16.1,25.6-24.2,38.3
			c-2.3,3.7-1,7.1,1,10.2c2,3,5.2,2.9,8.4,2c3.2-0.9,5.4-2.8,7.2-5.6c10.5-17.4,21.1-34.7,31.7-52.1c9.7-15.8,19.3-31.5,29.2-47.7
			c0.9,1.3,1.6,2.4,2.3,3.5c13,21.3,26.1,42.7,39.1,64c5.9,9.7,11.8,19.4,17.7,29c2.7,4.3,9.8,6.5,13.3,4.2
			c3.7-2.4,4.5-8.7,1.7-13.2c-4.3-6.8-8.6-13.7-12.9-20.5c-16.6-26.2-33.1-52.4-49.8-78.6c-1.7-2.7-1.8-4.7,0-7.3
			c2.9-4.2,5.4-8.6,8-12.9c40.7-66.6,81.4-133.1,122.1-199.7c22.9-37.5,45.8-74.9,68.7-112.4
			C1357.6,517.3,1357.3,514.9,1354.7,513.2z M1131,821.3c-7.5,4.8-7.5,4.8-12.2-2.9c-45.5-74.5-91-148.9-136.6-223.4
			c-13.3-21.8-26.6-43.6-39.9-65.4c-1.7-2.7-0.2-5.5,4.1-5.8c0.6,0,0.8,1.5,1.5,2.5c11.7,18.5,23.4,37,35.1,55.5
			c47,74.4,94.1,148.9,141.1,223.3c2.6,4.1,5,8.2,7.8,12.2C1133.3,819.3,1132.9,820.1,1131,821.3z M1345.4,534
			c-46.9,76.7-93.8,153.4-140.7,230c-12.8,21-25.7,42-38.5,63c-1.4,2.4-2.3,3-4.9,1.3c-7-4.5-7-4.3-2.6-11.3
			c36-56.9,72-113.8,108-170.8c24.3-38.5,48.7-77.1,73.1-115.6c0.6-1,0.9-3.6,3.2-2.2c1.3,0.8,3.3,1,3.7,3.1
			C1346.3,532.5,1345.8,533.3,1345.4,534z"/>
		<path class="st1" d="M1343,528.6c-2.3-1.4-2.6,1.2-3.2,2.2c-24.4,38.5-48.7,77.1-73.1,115.6c-36,56.9-72,113.9-108,170.8
			c-4.5,7-4.4,6.9,2.6,11.3c2.6,1.7,3.5,1,4.9-1.3c12.8-21.1,25.6-42,38.5-63c46.9-76.7,93.8-153.3,140.7-230
			c0.5-0.8,0.9-1.6,1.3-2.4C1346.3,529.5,1344.3,529.4,1343,528.6z M1192,775.2c-9.6,15.7-19.6,32-29.3,48.1c-0.5-0.3-1-0.6-1.4-0.9
			c0.4-0.8,1-1.7,1.6-2.5l0.1-0.2c18.7-29.6,37.4-59.1,56.1-88.7L1192,775.2z"/>
		<path class="st1" d="M1132,817.4c-2.7-4-5.2-8.1-7.8-12.2c-47.1-74.4-94.1-148.9-141.1-223.3c-11.7-18.5-23.4-37-35.1-55.5
			c-0.6-1-0.9-2.6-1.5-2.5c-4.3,0.3-5.8,3.1-4.1,5.8c13.3,21.8,26.6,43.6,39.9,65.4c45.5,74.5,91,148.9,136.6,223.4
			c4.7,7.7,4.6,7.6,12.2,2.9C1132.9,820.1,1133.3,819.3,1132,817.4z M1125.2,819c-0.6-0.8-1.3-2-2-3.2l-55.8-91.4
			c14.1,22.3,52.7,83.4,52.7,83.4c0.8,1.3,1.6,2.5,2.4,3.8c1.3,2.1,2.7,4.3,4.1,6.5C1126,818.5,1125.6,818.8,1125.2,819z"/>
	</g>
	<path class="st4" d="M982.3,628.6c0,0,14.8-2.8,17.2-13.8s2.7-46.8,2.7-46.8l104.9-27.8h68l113.2,30.3V624l14.9,4.6l-11.7,32.7
		L1209.8,884l-3.4,28.2l-40.4,24.3l-24.6,8.6l-17.3-6.3l-54.3-33.3l-48-52l-42.6-98.2L982.3,628.6z"/>
	<g>
		<path class="st1" d="M979.1,624.4h-19.9l0.2,33.8h-54.1v-5h49l-0.2-28.8c0-0.2,0-0.5,0.1-0.7c0.1-1.1,0.6-2.1,1.4-2.9
			c0.9-1,2.2-1.5,3.5-1.5H975l3.5,4.3L979.1,624.4z"/>
		<path class="st1" d="M1298.1,566.4V579l-4.3,4.5l-0.1,0.1v-14.8l-114.8-31.3c0-0.2,0-0.5,0-0.8c0-19.2-15.6-34.8-34.8-34.8
			c-19.2,0-34.8,15.6-34.8,34.8c0,0.2,0,0.4,0,0.6L994,568.8v12.5l-0.1-0.1l-4.3-4.5v-10.2c0.6-1.2,1.7-2.1,3.1-2.5l1.2-0.3
			l110.6-30.1c1.7-20.4,18.8-36.5,39.7-36.5c20.9,0,38.1,16.2,39.7,36.7l110,30l1.3,0.3C1296.4,564.3,1297.5,565.2,1298.1,566.4z"/>
		<path class="st1" d="M1380.7,653.2v5c-0.2,0-52.4,0-52.4,0l0.2-33.8h-17.7l4.1-5l6.4,0h7.2c1.3,0,2.6,0.5,3.5,1.5
			c0.9,0.9,1.5,2.2,1.5,3.5l-0.2,28.8L1380.7,653.2z"/>
	</g>
	<path class="st1" d="M1143.9,561.5c-13.7,0-24.8-11.1-24.8-24.8s11.1-24.8,24.8-24.8c13.7,0,24.8,11.1,24.8,24.8
		S1157.5,561.5,1143.9,561.5z"/>
	<path class="st2" d="M1241.7,619.7v-11.1l-97.9-26.9l-97.9,26.9v11.1c0,18.9-9.3,36.1-24.3,46.5H1266
		C1251,655.8,1241.7,638.6,1241.7,619.7z"/>
	<path class="st5" d="M1044.3,863.3c26.2,32.3,61.3,55.4,99.5,68.5c38.3-13.2,73.4-36.2,99.5-68.5c20.6-25.5,37.2-56.6,49.2-92.7
		c2.1-6.1,3.9-12.2,5.6-18.1h-31.3c-0.9,3.1-1.9,6.2-3,9.4c-24,71.3-62.8,118.4-120,139.8c-57.3-21.5-96-68.5-120-139.8
		c-1.1-3.2-2.1-6.3-3-9.4h-31.3c1.7,5.9,3.5,12,5.6,18.1C1007.1,806.7,1023.7,837.8,1044.3,863.3z"/>
	<path class="st5" d="M1039,619.7v-16.5l89.5-24.6c-11.3-4.2-20.7-12.9-25.6-24.1l-93.9,25.7v39.5c0,10.8-8.8,19.7-19.7,19.7h-15.1
		l0.1,15.1c0,0.6,0,4.8,0.5,11.8h32C1025.6,659.1,1039,641,1039,619.7z"/>
	<path class="st5" d="M1313.4,654.4l0.1-15.1h-15.1c-10.8,0-19.7-8.8-19.7-19.7v-39.5l-93.7-25.6c-4.9,11.3-14.2,19.9-25.6,24.1
		l89.3,24.5v16.5c0,21.2,13.4,39.4,32.2,46.5h32C1313.3,659.2,1313.4,655,1313.4,654.4z"/>
	<polygon class="st2" points="1143.9,518.7 1148,531.4 1161.4,531.4 1150.5,539.2 1154.7,551.9 1143.9,544.1 1133.1,551.9 
		1137.2,539.2 1126.4,531.4 1139.7,531.4 	"/>
	<g>
		<polygon class="st1" points="1105.2,638 1108.1,646.9 1117.4,646.9 1109.8,652.4 1112.7,661.3 1105.2,655.8 1097.6,661.3 
			1100.5,652.4 1092.9,646.9 1102.3,646.9 		"/>
		<polygon class="st1" points="1066.2,638 1069.1,646.9 1078.4,646.9 1070.9,652.4 1073.8,661.3 1066.2,655.8 1058.6,661.3 
			1061.5,652.4 1053.9,646.9 1063.3,646.9 		"/>
		<polygon class="st1" points="1222.1,638 1225,646.9 1234.3,646.9 1226.8,652.4 1229.7,661.3 1222.1,655.8 1214.5,661.3 
			1217.4,652.4 1209.8,646.9 1219.2,646.9 		"/>
		<polygon class="st1" points="1183.1,638 1186,646.9 1195.4,646.9 1187.8,652.4 1190.7,661.3 1183.1,655.8 1175.5,661.3 
			1178.4,652.4 1170.8,646.9 1180.2,646.9 		"/>
		<polygon class="st1" points="1144.1,638 1147,646.9 1156.4,646.9 1148.8,652.4 1151.7,661.3 1144.1,655.8 1136.6,661.3 
			1139.4,652.4 1131.9,646.9 1141.2,646.9 		"/>
	</g>
	<path class="st2" d="M1305.4,752.5c-1.2,4.3-2.4,8.6-3.8,13c-0.8,2.4-1.5,4.9-2.4,7.3c-12.3,36.8-29.4,68.6-50.4,94.8
		c-42.1,52.6-105,73.2-105,73.2s-63.3-20.4-105-73.2c-20.8-26.4-38.1-58-50.4-94.8c-0.8-2.5-1.6-4.9-2.4-7.3
		c-1.4-4.4-2.6-8.7-3.8-13l-77,0v8c0,0,53.7,0,70.9,0c0.2,0.8,0.5,1.7,0.7,2.5c0.2,0.8,0.5,1.7,0.8,2.5c1,3.3,2,6.6,3.1,9.9
		c0.3,1,0.7,2,1,3.1c0.4,1,0.7,2,1.1,3.1c0.7,2.1,1.5,4.2,2.3,6.3c0.3,0.9,0.7,1.8,1,2.7c0.4,1.1,0.9,2.2,1.3,3.3
		c0.3,0.9,0.7,1.7,1,2.6c0.4,1,0.8,2,1.2,3c0.4,0.9,0.8,1.9,1.2,2.8c0.4,0.9,0.8,1.9,1.2,2.9c2.4,5.6,5,11,7.7,16.3
		c0.4,0.8,0.8,1.7,1.3,2.5c0.9,1.7,1.7,3.3,2.6,5c0.4,0.7,0.8,1.4,1.2,2.1c1.7,3.1,3.4,6.1,5.2,9.1c0.5,0.8,1,1.7,1.5,2.5
		c0.2,0.4,0.5,0.8,0.7,1.2c0.4,0.6,0.7,1.2,1.1,1.8c2.4,3.9,4.9,7.7,7.4,11.4c1.2,1.7,2.3,3.4,3.5,5c26.5,35,51,52.1,51,52.1
		c0.8,0.6,1.6,1.2,2.4,1.8c1.6,1.2,3.3,2.3,4.9,3.4c0.5,0.4,1.1,0.7,1.6,1.1c5.4,3.7,10.7,6.9,15.7,9.8c0.9,0.5,1.8,1,2.7,1.5
		c9.8,5.4,18.6,9.4,25.4,12.2c1,0.4,2,0.8,2.9,1.2c0.3,0.1,0.6,0.2,0.9,0.4c0.9,0.4,1.8,0.7,2.6,1c1.4,0.5,2.6,0.9,3.7,1.3
		c0.4,0.1,0.7,0.2,1,0.4c2.1,0.7,3.4,1.1,4,1.2c0.2,0,0.2,0.1,0.3,0.1c0,0,0,0,0,0s33.9-10.8,69.2-36.8l2.5,3.1
		c2.1-1.6,4.1-3.2,6.2-4.9l-2.4-2.9c5.9-4.6,11.8-9.7,17.5-15.1l2.4,2.7c1.9-1.9,3.8-3.8,5.8-5.7l-2.4-2.7c1.9-2,3.8-4,5.6-6.1
		l2.5,2.7c5.6-6.1,10-13.8,15.3-20.8l-2-2.1c17.4-24.5,31.9-53,42.7-85.3c1.1-3.3,2.2-6.6,3.1-9.9c0.5-1.7,1-3.3,1.5-5
		c0,0,53.4,0,69.2,0v-8C1364.8,752.5,1305.4,752.5,1305.4,752.5z"/>
	<path class="st6" d="M1380.7,752.5v8c-15.9,0-69.2,0-69.2,0c-0.5,1.7-1,3.3-1.5,5c-1,3.3-2,6.6-3.1,9.9
		c-10.8,32.3-25.3,60.8-42.7,85.3l1.4,1.4c-5.4,7-9.4,14.8-15,20.9c-1.9,2.1-3.5,4.6-5.4,6.6c-1.9,2-3.8,3.9-5.8,5.7
		c-5.8,5.6-11.7,10.7-17.5,15.4c-2.1,1.7-4.2,3.3-6.2,4.9l-2.5-3.1c-35.3,25.9-69.2,36.8-69.2,36.8h0v-8.5h0c0,0,62.9-20.6,105-73.2
		c21-26.2,38.1-58,50.4-94.8c0.8-2.5,1.6-4.9,2.4-7.3c1.4-4.4,2.6-8.7,3.8-13C1305.4,752.5,1364.8,752.5,1380.7,752.5z"/>
	<path class="st6" d="M1241.7,619.7v-11.1l-97.9-26.9l0,0v84.5H1266C1251,655.8,1241.7,638.6,1241.7,619.7z"/>
	<path class="st6" d="M1201.1,752.5c5,9.2,7.9,19.8,7.9,31c0,35.7-29,64.7-64.7,64.7c-0.2,0-0.3,0-0.5,0v46c0,0,0,0,0,0
		c53.9-21.1,90.4-66.4,113.4-134.6c0.8-2.4,1.6-4.8,2.3-7.2H1201.1z"/>
	<g>
		<text transform="matrix(1 0 0 1 1089.1528 628.5566)" class="st4 st7 st8">EST. 2025</text>
	</g>
	<path class="st2" d="M1380.4,658.2h-52.2l0.2-33.8h-30.2c-1.3,0-2.5-0.6-3.4-1.5l0.1-0.1c-0.8-0.9-1.3-2-1.3-3.3v-50.7l-114.8-31.3
		c0-0.2,0-0.5,0-0.8c0-19.2-15.6-34.8-34.8-34.8c-19.2,0-34.8,15.6-34.8,34.8c0,0.2,0,0.4,0,0.6L994,568.8v12.5l-0.3-0.3v40.6
		c-0.7,1.7-2.4,2.9-4.3,2.9h-30.2l0.2,33.8h-54.1v8h62.5c-0.4-6.9-0.5-11.1-0.5-11.7l-0.1-22.1h22.1c7,0,12.7-5.7,12.7-12.7v-44.8
		l108.4-29.6c3.8,15,17.5,26.2,33.7,26.2c16.2,0,29.8-11.1,33.7-26l107.9,29.4v44.8c0,7,5.7,12.7,12.7,12.7h22.1l-0.1,22.1
		c0,0.6,0,4.8-0.5,11.7h60.6c0.1,0,0.1,0,0.2,0v-8C1380.6,658.2,1380.5,658.2,1380.4,658.2z M1144.1,561.5
		c-13.7,0-24.8-11.1-24.8-24.8c0-13.7,11.1-24.8,24.8-24.8c13.7,0,24.8,11.1,24.8,24.8C1168.9,550.4,1157.8,561.5,1144.1,561.5z"/>
	<path class="st1" d="M993.9,564.3v55.6c0,2.5-2,4.5-4.5,4.5h-35.2c0.1-1.1,0.6-2.8,1.4-3.5c0.9-1,2.2-1.5,3.5-1.5h28.4
		c1.1,0,2-0.9,2-2v-50.3c0.6-1.2,1.7-2.1,3.1-2.5L993.9,564.3z"/>
	<path class="st1" d="M1324.8,619.4l-3.5,4.9c0,0-0.1,0.1-0.1,0.1h-23.4c-2.3,0-4.1-1.8-4.1-4.1V568l1.3,0.3
		c1.3,0.4,2.4,1.3,3.1,2.4v47.3c0,0.7,0.6,1.3,1.3,1.3H1324.8z"/>
	<path class="st1" d="M1076.9,921.3c-0.1-0.1-0.3-0.2-0.4-0.3l0,0C1076.6,921.1,1076.7,921.2,1076.9,921.3z"/>
	<path class="st1" d="M1070.1,916.1c7.4,5.7,14.5,10.6,21.3,14.8c0.1,0,0.2,0.1,0.2,0.1c22.7,13.5,41.5,20.6,47.2,22.6
		c0.1,0,0.2,0.1,0.3,0.1c0.1,0,0.2,0.1,0.2,0.1c0.2,0.1,0.4,0.2,0.6,0.2c0.1,0,0.2,0.1,0.2,0.1c0.1,0,0.2,0.1,0.2,0.1
		c0.1,0,0.1,0,0.1,0.1l1.4,0.4l0.2,0l1.3-0.3c0.4-0.1,3.6-1,8.9-2.9c0,0,0,0,0,0c11.6-4.2,33.1-13.3,56.7-30c0,0,0,0,0,0
		c0.1-0.1,0.3-0.2,0.4-0.3l0,0c1.4-0.9,2.8-1.8,4.2-2.8c28.3-20,51.4-52.4,51.4-52.4c1.9-2.7,2.8-4.2,2.8-4.2
		c3-4.3,5.9-8.7,8.7-13.2c0,0,0.1-0.1,0.1-0.1c13.4-21.6,24.5-45.5,33.2-71.3c1.2-3.7,2.4-7.5,3.6-11.5l67.2,0v-5c0,0-53.7,0-70.9,0
		c-0.2,0.8-0.5,1.7-0.7,2.5c-0.2,0.8-0.5,1.7-0.8,2.5c-1,3.3-2,6.6-3.1,9.9c-0.3,1-0.7,2-1,3.1c-0.4,1-0.7,2-1.1,3.1
		c-0.7,2.1-1.5,4.2-2.3,6.3c-0.3,0.9-0.7,1.8-1,2.7c-0.4,1.1-0.9,2.2-1.3,3.3c-0.3,0.9-0.7,1.7-1,2.6c-0.4,1-0.8,2-1.2,3
		c-0.4,0.9-0.8,1.9-1.2,2.8c-0.4,1-0.8,1.9-1.2,2.9c-2.4,5.6-5,11-7.7,16.3c-0.4,0.8-0.8,1.7-1.3,2.5c-0.9,1.7-1.7,3.3-2.6,5
		c-0.4,0.7-0.8,1.4-1.2,2.1c-1.7,3.1-3.4,6.1-5.2,9.1c-0.5,0.8-1,1.7-1.5,2.5c-0.2,0.4-0.5,0.8-0.7,1.2c-0.4,0.6-0.7,1.2-1.1,1.8
		c-2.4,3.9-4.9,7.7-7.4,11.4c-1.2,1.7-2.3,3.4-3.5,5c-26.5,35-51,52.1-51,52.1c-0.8,0.6-1.6,1.2-2.4,1.8c-1.6,1.2-3.3,2.3-4.9,3.4
		c-0.5,0.4-1.1,0.7-1.6,1.1c-5.4,3.7-10.7,6.9-15.7,9.8c-0.9,0.5-1.8,1-2.7,1.5c-9.8,5.4-18.6,9.4-25.4,12.2c-1,0.4-2,0.8-2.9,1.2
		c-0.3,0.1-0.6,0.2-0.9,0.4c-0.9,0.4-1.8,0.7-2.6,1c-1.4,0.5-2.6,0.9-3.7,1.3c-0.4,0.1-0.7,0.2-1,0.4c-2.1,0.7-3.4,1.1-4,1.2
		c-0.2,0-0.3,0.1-0.3,0.1c0,0,0,0,0,0s-33.9-10.8-69.2-36.8l-2.5,3.1L1070.1,916.1z"/>
	<path class="st1" d="M1215.9,916.1c-7.4,5.7-14.5,10.6-21.3,14.8c-0.1,0-0.2,0.1-0.2,0.1c-22.7,13.5-41.5,20.6-47.2,22.6
		c-0.1,0-0.2,0.1-0.3,0.1c-0.1,0-0.2,0.1-0.2,0.1c-0.2,0.1-0.4,0.2-0.6,0.2c-0.1,0-0.2,0.1-0.2,0.1c-0.1,0-0.2,0.1-0.2,0.1
		c-0.1,0-0.1,0-0.1,0.1l-1.4,0.4l-0.2,0l-1.3-0.3c-0.4-0.1-3.6-1-8.9-2.9c0,0,0,0,0,0c-11.6-4.2-33.1-13.3-56.7-30c0,0,0,0,0,0
		c-0.1-0.1-0.3-0.2-0.4-0.3l0,0c-1.4-0.9-2.8-1.8-4.2-2.8c-28.3-20-51.4-52.4-51.4-52.4c-1.9-2.7-2.8-4.2-2.8-4.2
		c-3-4.3-5.9-8.7-8.7-13.2c0,0,0-0.1-0.1-0.1c-13.4-21.6-24.5-45.5-33.2-71.3c-1.2-3.7-2.4-7.5-3.6-11.5l-67.2,0v-5
		c0,0,53.7,0,70.9,0c0.2,0.8,0.5,1.7,0.7,2.5c0.2,0.8,0.5,1.7,0.8,2.5c1,3.3,2,6.6,3.1,9.9c0.3,1,0.7,2,1,3.1c0.4,1,0.7,2,1.1,3.1
		c0.7,2.1,1.5,4.2,2.3,6.3c0.3,0.9,0.7,1.8,1,2.7c0.4,1.1,0.9,2.2,1.3,3.3c0.3,0.9,0.7,1.7,1,2.6c0.4,1,0.8,2,1.2,3
		c0.4,0.9,0.8,1.9,1.2,2.8c0.4,1,0.8,1.9,1.2,2.9c2.4,5.6,5,11,7.7,16.3c0.4,0.8,0.8,1.7,1.3,2.5c0.9,1.7,1.7,3.3,2.6,5
		c0.4,0.7,0.8,1.4,1.2,2.1c1.7,3.1,3.4,6.1,5.2,9.1c0.5,0.8,1,1.7,1.5,2.5c0.2,0.4,0.5,0.8,0.7,1.2c0.4,0.6,0.7,1.2,1.1,1.8
		c2.4,3.9,4.9,7.7,7.4,11.4c1.2,1.7,2.3,3.4,3.5,5c26.5,35,51,52.1,51,52.1c0.8,0.6,1.6,1.2,2.4,1.8c1.6,1.2,3.3,2.3,4.9,3.4
		c0.5,0.4,1.1,0.7,1.6,1.1c5.4,3.7,10.7,6.9,15.7,9.8c0.9,0.5,1.8,1,2.7,1.5c9.8,5.4,18.6,9.4,25.4,12.2c1,0.4,2,0.8,2.9,1.2
		c0.3,0.1,0.6,0.2,0.9,0.4c0.9,0.4,1.8,0.7,2.6,1c1.4,0.5,2.6,0.9,3.7,1.3c0.4,0.1,0.7,0.2,1,0.4c2.1,0.7,3.4,1.1,4,1.2
		c0.2,0,0.3,0.1,0.3,0.1c0,0,0,0,0,0s33.9-10.8,69.2-36.8l2.5,3.1L1215.9,916.1z"/>
	<path class="st2" d="M1259.5,752.5c-0.7,2.4-1.5,4.8-2.3,7.2c-23,68.2-59.5,113.5-113.4,134.6h0c-53.9-21.1-90.4-66.4-113.4-134.6
		c-0.8-2.4-1.6-4.8-2.3-7.2H1259.5z"/>
	<g>
		<path class="st5" d="M1109.9,759.8c-8.8,0-17.6,0-26.4,0c-2.4,0-4.4,1-5.4,2.7c-1,1.7-0.8,3.9,0.4,5.9l5.2,8.8
			c18.2,30.5,36.4,60.9,54.6,91.4c1.4,2.4,3.5,3.8,5.6,3.8c2.1,0,4.2-1.4,5.6-3.8c9.6-16.1,19.2-32.1,28.8-48.2l13.5-22.6
			c5.8-9.8,11.7-19.5,17.5-29.3c0.8-1.4,1.3-2.6,1-3.9c-0.7-3.2-2.7-4.7-6.2-4.7L1109.9,759.8z M1221.7,761.5
			c-0.9-3.6-2.6-6.7-5.2-9h-8.9c-1.3-0.3-2.6-0.4-4-0.4c-19.9,0-39.8,0-59.7,0h-10.2c-16.6,0-33.1,0.1-49.7,0
			c-1.5,0-2.8,0.2-4.1,0.5h-8.6c-1.5,1.3-2.8,2.9-3.7,4.7c-3.1,5.6-2.7,12.3,0.9,17.8c2.6,3.9,5,8.1,7.4,12.2l0.1,0.2
			c1.2,2,2.3,4,3.5,5.9l15.3,25.6c11,18.5,22.4,37.6,33.7,56.3c3.4,5.6,9.1,9,15.3,9c6.3,0,12.1-3.4,15.6-9.2
			c20-33.5,40.1-67,60.1-100.5C1222,770.2,1222.7,765.9,1221.7,761.5z"/>
		<path class="st5" d="M1219.7,762c-1-4.2-3.3-7.4-6.5-9.5h-138.6c-2.2,1.4-4,3.3-5.2,5.6c-2.7,5-2.4,10.9,0.8,15.7
			c2.7,4,5.1,8.3,7.6,12.4c1.1,2,2.3,4,3.5,5.9l13,21.8c11.8,19.7,23.9,40.1,35.9,60.1c3,5,8.1,8,13.6,8c5.6,0,10.8-3.1,13.9-8.2
			c20-33.5,40.1-67,60.1-100.5C1220,769.6,1220.7,765.8,1219.7,762z M1211,769.4c-10.3,17.3-20.7,34.6-31,51.9
			c-9.6,16.1-19.2,32.2-28.8,48.2c-3.8,6.3-10.9,6.4-14.7,0c-19.9-33.4-39.9-66.8-59.8-100.2c-3.4-5.7,0-11.6,6.7-11.6
			c20.2,0,40.4,0,60.6,0c20,0,40.1,0,60.1,0c4.5,0,7.3,2.2,8.2,6.3C1212.7,766.1,1212,767.8,1211,769.4z"/>
		<path class="st4" d="M1217.6,762.5c-1.5-6.5-6.8-10.4-14-10.4c-19.9,0-39.8,0-59.7,0h-10.2c-16.6,0-33.1,0.1-49.7,0
			c-11.7-0.1-18,11.7-12,20.7c3.9,6,7.4,12.3,11.1,18.5c16.3,27.3,32.6,54.6,48.9,81.8c5.7,9.4,18.1,9.3,23.8-0.2
			c20-33.5,40.1-67,60.1-100.5C1217.7,769.2,1218.5,766,1217.6,762.5z M1211,769.4c-10.3,17.3-20.7,34.6-31,51.9
			c-9.6,16.1-19.2,32.2-28.8,48.2c-3.8,6.3-10.9,6.4-14.7,0c-19.9-33.4-39.9-66.8-59.8-100.2c-3.4-5.7,0-11.6,6.7-11.6
			c20.2,0,40.4,0,60.6,0c20,0,40.1,0,60.1,0c4.5,0,7.3,2.2,8.2,6.3C1212.7,766.1,1212,767.8,1211,769.4z"/>
		<path class="st4" d="M1156.5,781c5.9,0.1,10.5,4.8,10.4,10.6c-0.1,5.9-4.8,10.6-10.8,10.5c-5.9-0.1-10.5-4.8-10.4-10.8
			C1145.9,785.4,1150.7,780.9,1156.5,781z M1156.3,787.2c0-1.9-1.4-3.2-3.3-3.2c-1.9,0-3.3,1.4-3.3,3.3c0,2,1.4,3.4,3.4,3.3
			C1155,790.5,1156.3,789.1,1156.3,787.2z"/>
		<path class="st4" d="M1145.8,833.7c0-5.9,4.8-10.6,10.8-10.5c5.7,0.1,10.5,4.9,10.5,10.7c0,5.7-4.9,10.5-10.6,10.6
			C1150.6,844.5,1145.7,839.6,1145.8,833.7z M1153,833c1.8,0,3.3-1.5,3.3-3.3c0-1.9-1.3-3.3-3.2-3.3c-2,0-3.5,1.5-3.4,3.4
			C1149.7,831.5,1151.2,833,1153,833z"/>
		<path class="st4" d="M1117.7,823.2c-5.8,0-10.5-4.9-10.5-10.6c0-5.7,4.9-10.6,10.6-10.6c5.8,0,10.7,4.8,10.7,10.7
			C1128.5,818.5,1123.7,823.2,1117.7,823.2z M1114.5,811.8c1.8,0,3.3-1.5,3.4-3.3c0.1-1.8-1.6-3.5-3.4-3.5c-1.8,0-3.3,1.4-3.3,3.3
			C1111.2,810.3,1112.6,811.8,1114.5,811.8z"/>
		<path class="st4" d="M1181.8,780.9c6,0,10.7,4.7,10.7,10.6c-0.1,5.9-4.8,10.5-10.8,10.5c-5.8-0.1-10.5-4.8-10.4-10.6
			C1171.3,785.5,1176,780.9,1181.8,780.9z M1181.8,787.2c0-1.9-1.5-3.3-3.3-3.3c-2,0-3.4,1.5-3.3,3.5c0.1,1.9,1.4,3.2,3.4,3.1
			C1180.5,790.5,1181.9,789.1,1181.8,787.2z"/>
		<path class="st4" d="M1118.2,759.7c5.8,0.2,10.6,5.3,10.3,11.1c-0.2,5.7-5.2,10.4-10.9,10.2c-5.7-0.2-10.5-5.2-10.3-10.8
			C1107.4,764.2,1112.4,759.5,1118.2,759.7z M1117.9,766.1c0-1.9-1.6-3.4-3.5-3.3c-1.9,0.1-3.2,1.5-3.1,3.4c0,1.9,1.4,3.3,3.2,3.4
			C1116.3,769.6,1117.9,768,1117.9,766.1z"/>
		<path class="st4" d="M1180.3,770.3c0,5.9-4.6,10.6-10.4,10.7c-5.9,0.1-10.7-4.7-10.7-10.6c0-5.9,4.6-10.5,10.4-10.6
			C1175.6,759.6,1180.3,764.3,1180.3,770.3z M1169.8,766.3c0.1-1.8-1.4-3.3-3.2-3.4c-1.9-0.1-3.5,1.4-3.6,3.2
			c-0.1,1.8,1.6,3.5,3.4,3.5C1168.2,769.6,1169.8,768,1169.8,766.3z"/>
		<path class="st4" d="M1081.3,770.1c0.1-5.8,4.8-10.5,10.6-10.5c5.8,0,10.7,5,10.6,10.8c-0.1,5.7-5,10.5-10.7,10.5
			C1086,780.9,1081.3,776,1081.3,770.1z M1088.6,762.8c-1.9,0-3.5,1.5-3.4,3.4c0,1.7,1.7,3.3,3.4,3.3c1.8,0,3.4-1.6,3.4-3.5
			C1091.8,764.2,1090.4,762.8,1088.6,762.8z"/>
		<path class="st4" d="M1154.4,770.4c0,5.8-4.7,10.5-10.5,10.6c-5.7,0-10.7-4.8-10.7-10.4c0-5.8,4.8-10.8,10.6-10.8
			C1149.7,759.7,1154.4,764.4,1154.4,770.4z M1140.5,762.8c-1.9,0-3.3,1.4-3.4,3.2c-0.1,1.9,1.5,3.6,3.3,3.5c1.8,0,3.5-1.7,3.4-3.5
			C1143.8,764.2,1142.3,762.8,1140.5,762.8z"/>
		<path class="st4" d="M1185.2,770.2c0.1-5.8,4.8-10.5,10.6-10.5c5.8,0,10.7,5,10.5,10.8c-0.1,5.9-4.8,10.5-10.6,10.5
			C1189.9,780.9,1185.2,776.1,1185.2,770.2z M1195.7,766.1c0-1.9-1.4-3.3-3.2-3.3c-1.9,0-3.5,1.5-3.5,3.4c0,1.7,1.6,3.3,3.3,3.4
			C1194.2,769.6,1195.7,768,1195.7,766.1z"/>
		<path class="st4" d="M1133,856c0-5.9,4.6-10.5,10.4-10.6c6,0,10.7,4.6,10.7,10.5c0,5.9-4.6,10.5-10.4,10.6
			C1137.8,866.6,1133.1,861.9,1133,856z M1140.2,855c2,0,3.3-1.3,3.3-3.2c0-2-1.4-3.5-3.4-3.4c-1.8,0-3.3,1.6-3.3,3.4
			C1136.9,853.6,1138.3,855,1140.2,855z"/>
		<path class="st4" d="M1120.3,834.8c-0.1-5.8,4.6-10.6,10.4-10.7c5.9-0.1,10.7,4.6,10.7,10.5c0,5.9-4.7,10.7-10.6,10.7
			C1125,845.4,1120.4,840.7,1120.3,834.8z M1127.6,827.3c-1.9,0-3.5,1.6-3.5,3.4c0.1,1.7,1.7,3.3,3.4,3.4c1.8,0.1,3.4-1.6,3.4-3.5
			C1130.8,828.7,1129.4,827.3,1127.6,827.3z"/>
		<path class="st4" d="M1143.4,823.2c-5.8-0.1-10.4-4.8-10.4-10.6c0-5.8,4.8-10.6,10.5-10.6c5.9,0,10.7,4.9,10.7,10.7
			C1154.2,818.6,1149.4,823.3,1143.4,823.2z M1143.5,808.5c0-1.8-1.4-3.3-3.1-3.4c-1.8-0.1-3.5,1.5-3.5,3.3c0,1.9,1.6,3.5,3.5,3.4
			C1142.1,811.8,1143.5,810.3,1143.5,808.5z"/>
		<path class="st4" d="M1120.3,791.4c0-5.9,4.6-10.5,10.4-10.5c6,0,10.7,4.6,10.7,10.5c0,6-4.7,10.6-10.7,10.5
			C1124.9,802,1120.3,797.3,1120.3,791.4z M1130.8,787.4c0-1.9-1.3-3.4-3.2-3.4c-1.8-0.1-3.5,1.4-3.6,3.1c-0.1,1.9,1.5,3.5,3.4,3.5
			C1129.4,790.6,1130.8,789.3,1130.8,787.4z"/>
		<path class="st4" d="M1179.9,812.7c0,5.9-4.7,10.5-10.5,10.5c-5.9,0-10.6-4.8-10.6-10.7c0.1-5.8,4.8-10.5,10.6-10.5
			C1175.2,802,1179.9,806.8,1179.9,812.7z M1166,805.1c-1.7,0-3.3,1.6-3.4,3.3c0,1.9,1.5,3.5,3.4,3.5c1.8,0,3.3-1.5,3.4-3.3
			C1169.4,806.7,1167.8,805.1,1166,805.1z"/>
		<path class="st4" d="M1105.5,781c6,0,10.5,4.7,10.4,10.7c-0.1,5.8-4.7,10.4-10.6,10.3c-5.9,0-10.5-4.7-10.4-10.8
			C1094.9,785.5,1099.6,780.9,1105.5,781z M1105.4,787.2c-0.1-1.8-1.6-3.2-3.4-3.2c-1.9,0-3.5,1.6-3.4,3.4c0.1,1.9,1.7,3.3,3.6,3.2
			C1104.1,790.5,1105.4,789,1105.4,787.2z"/>
	</g>
	<path class="st6" d="M1259.5,752.5c-0.7,2.4-1.5,4.8-2.3,7.2c-23,68.2-59.5,113.5-113.4,134.6h0V752.5H1259.5z"/>
	<path class="st4" d="M1217.6,762.5c-1.2-5.2-4.9-8.8-10-10c-1.3-0.3-2.6-0.4-4-0.4c-19.9,0-39.8,0-59.7,0h-10.2
		c-16.6,0-33.1,0.1-49.7,0c-1.5,0-2.8,0.2-4.1,0.5c-9,2.3-13.1,12.3-7.9,20.2c3.9,6,7.4,12.3,11.1,18.5
		c16.3,27.3,32.6,54.6,48.9,81.8c5.7,9.4,18.1,9.3,23.8-0.2c20-33.5,40.1-67,60.1-100.5C1217.7,769.2,1218.5,766,1217.6,762.5z
		 M1211,769.4c-10.3,17.3-20.7,34.6-31,51.9c-9.6,16.1-19.2,32.2-28.8,48.2c-3.8,6.3-10.9,6.4-14.7,0
		c-19.9-33.4-39.9-66.8-59.8-100.2c-3.4-5.7,0-11.6,6.7-11.6c20.2,0,40.4,0,60.6,0c20,0,40.1,0,60.1,0c4.5,0,7.3,2.2,8.2,6.3
		C1212.7,766.1,1212,767.8,1211,769.4z"/>
	<g>
		<g>
			<text transform="matrix(1 0 0 1 883.7749 744.3057)" class="st9 st10 st11">X Snooker Club</text>
		</g>
		<g>
			<text transform="matrix(1 0 0 1 883.7749 744.3057)" class="st10 st11">X Snooker Club</text>
		</g>
	</g>
</g>
</svg>
