<?xml version="1.0" encoding="utf-8"?>
<!-- Generator: Adobe Illustrator 27.3.1, SVG Export Plug-In . SVG Version: 6.00 Build 0)  -->
<svg version="1.1" id="Layer_1" xmlns="http://www.w3.org/2000/svg" xmlns:xlink="http://www.w3.org/1999/xlink" x="0px" y="0px"
	 viewBox="0 0 592.3 531.5" style="enable-background:new 0 0 592.3 531.5;" xml:space="preserve">
<style type="text/css">
	.st0{fill:#FFFFFF;}
	.st1{display:none;opacity:0.2;}
	.st2{fill:#FECB8B;}
	.st3{fill:#0063A7;}
	.st4{fill:#603913;}
	.st5{fill:#D9272D;}
	.st6{opacity:0.2;}
	.st7{font-family:'Roboto-Bold';}
	.st8{font-size:24.2934px;}
	.st9{fill:none;stroke:#000000;stroke-miterlimit:10;}
</style>
<rect x="57.6" y="201.7" class="st0" width="138.8" height="90.5"/>
<rect x="394.1" y="201.7" class="st0" width="138.8" height="90.5"/>
<rect x="111.4" y="160.7" class="st0" width="365.7" height="137"/>
<path class="st1" d="M416.3,191.1l0.1-15.1h-15.1c-10.8,0-19.7-8.8-19.7-19.7v-39.5l-93.7-25.6c-4.9,11.3-14.2,19.9-25.6,24.1
	l89.3,24.5v16.5c0,21.2,13.4,39.4,32.2,46.5h32C416.3,195.9,416.3,191.7,416.3,191.1z"/>
<path class="st1" d="M346.3,400c20.6-25.5,37.2-56.6,49.2-92.7c2.1-6.1,3.9-12.2,5.6-18.1h-31.3c-0.9,3.1-1.9,6.2-3,9.4
	c-24,71.3-62.8,118.4-120,139.8c0,0,0,0,0,0v30.1c0,0,0,0,0,0C285,455.3,320.1,432.3,346.3,400z"/>
<g>
	<path class="st0" d="M67,287c-2.5,0-4.8-1.6-5.6-4l-2.4-6.6l-2.4,6.6c-0.9,2.4-3.1,3.9-5.6,3.9H39.6c-2,0-3.8-1-5-2.6
		c-1.1-1.6-1.4-3.7-0.6-5.6l12.8-32.7l-12.7-32.3c-0.7-1.8-0.5-3.9,0.6-5.6c1.1-1.6,3-2.6,5-2.6h11.6c2.5,0,4.8,1.6,5.6,4l2.1,5.8
		l2.1-5.8c0.9-2.4,3.1-4,5.6-4h11.6c2,0,3.8,1,5,2.6c1.1,1.6,1.3,3.7,0.6,5.6L71,246.1l12.8,32.7c0.7,1.8,0.5,3.9-0.6,5.6
		c-1.1,1.6-3,2.6-5,2.6H67z"/>
	<path class="st0" d="M110.4,287.8c-5.4,0-10.1-1.4-13.8-4.3c-3-2.2-5.5-5.3-7.2-9.1c-1.6-3.5-2.6-7.5-2.8-12
		c-0.2-3.3,2.3-6.1,5.6-6.3l10-0.7c0.1,0,0.3,0,0.4,0c0.5,0,0.9,0.1,1.4,0.2l-4.7-4.4c-4-3.9-6.8-7.3-8.5-10.5c0,0,0-0.1-0.1-0.1
		c-2-3.8-3-8-3-12.5c0-10.3,4.7-16.1,8.7-19.1c3.7-2.8,8.2-4.2,13.4-4.2c4.9,0,9.1,1.1,12.8,3.4c2.9,1.8,5.3,4.4,7.1,7.6
		c1.7,3,2.7,6.5,3,10.4c0.3,3.1-1.9,5.9-4.9,6.4l-10,1.8c-0.4,0.1-0.7,0.1-1.1,0.1c-1.3,0-2.6-0.4-3.6-1.2c-0.1-0.1-0.3-0.2-0.4-0.3
		c0.2,0.2,0.3,0.4,0.5,0.6c0.6,0.7,1.7,1.8,3.8,3.6c3.4,2.9,4.7,4.1,5.3,4.7c2.9,2.9,5.3,5.9,6.9,8.9c0.8,1.4,1.4,2.7,1.9,3.9
		c1.3,3.2,1.9,6.1,2,8.8c0.1,6.2-1.6,11.6-5,16.1c-2.4,3.3-5.9,5.7-10.2,7.1C115.8,287.5,113.2,287.8,110.4,287.8z M108.3,259.8
		c0.1,0.3,0.2,0.7,0.2,1.1c0.4,3.6,1.3,4.9,1.6,5.3c0.1-0.1,0.2-0.2,0.4-0.5c0-0.1,0.1-0.5,0.1-1.4
		C110.6,262.9,109.9,261.5,108.3,259.8L108.3,259.8z M110.5,227.8c0,0.5,0.1,1,0.2,1.6c0-0.1,0-0.2,0-0.3
		C110.7,228.7,110.6,228.2,110.5,227.8z"/>
	<path class="st0" d="M160.7,287c-2.6,0-4.9-1.7-5.7-4.2l-2.7-8.3v6.4c0,3.3-2.7,6-6,6h-10.5c-3.3,0-6-2.7-6-6v-69.4
		c0-3.3,2.7-6,6-6h11.7c2.7,0,5,1.7,5.8,4.3l2.1,7.2v-5.4c0-3.3,2.7-6,6-6H172c3.3,0,6,2.7,6,6V281c0,3.3-2.7,6-6,6H160.7z"/>
	<path class="st0" d="M197.7,287.8c-6.3,0-11.6-2.2-16-6.7c-4.3-4.4-6.5-9.8-6.5-16v-37.9c0-6.2,2.2-11.6,6.6-16
		c4.4-4.4,9.7-6.6,15.9-6.6c6.2,0,11.6,2.2,16,6.6c4.4,4.4,6.6,9.8,6.6,16v37.9c0,6.2-2.2,11.6-6.6,16
		C209.3,285.6,203.9,287.8,197.7,287.8z M197.4,265.1l0-37.9c0,0,0,0,0,0L197.4,265.1C197.4,265.1,197.4,265.1,197.4,265.1z"/>
	<path class="st0" d="M239.9,287.8c-6.3,0-11.6-2.2-16-6.7c-4.3-4.4-6.5-9.8-6.5-16v-37.9c0-6.2,2.2-11.6,6.6-16
		c4.4-4.4,9.7-6.6,15.9-6.6c6.2,0,11.6,2.2,16,6.6c4.4,4.4,6.6,9.8,6.6,16v37.9c0,6.2-2.2,11.6-6.6,16
		C251.4,285.6,246.1,287.8,239.9,287.8z M239.6,265.1l0-37.9c0,0,0,0,0,0L239.6,265.1C239.6,265.1,239.6,265.1,239.6,265.1z"/>
	<path class="st0" d="M290.2,287c-2.5,0-4.7-1.5-5.6-3.8l-2.5-6.5v4.3c0,3.3-2.7,6-6,6h-10.5c-3.3,0-6-2.7-6-6v-69.4
		c0-3.3,2.7-6,6-6h10.5c3.3,0,6,2.7,6,6v0.1l1.5-2.8c1-2,3.1-3.2,5.3-3.2h11.2c2.1,0,4,1.1,5.1,2.9s1.2,4,0.2,5.9l-13.1,25.9
		l15.8,38.6c0.8,1.9,0.5,4-0.6,5.6c-1.1,1.7-3,2.7-5,2.7H290.2z"/>
	<path class="st0" d="M311.1,287c-3.3,0-6-2.7-6-6v-69.4c0-3.3,2.7-6,6-6h29.8c3.3,0,6,2.7,6,6v10.5c0,3.3-2.7,6-6,6h-13.3v6.9h8.1
		c3.3,0,6,2.7,6,6v10.5c0,3.3-2.7,6-6,6h-8.1v6.9h13.3c3.3,0,6,2.7,6,6V281c0,3.3-2.7,6-6,6H311.1z"/>
	<path class="st0" d="M371.8,287c-2.8,0-5.2-1.9-5.8-4.6l-1.5-6.1v4.7c0,3.3-2.7,6-6,6H348c-3.3,0-6-2.7-6-6v-69.3c0-3.3,2.7-6,6-6
		h16.5c7.6,0,13.5,2.3,17.4,6.9c3.3,3.9,5,9.2,5,15.6v10.1c0,5.4-1.7,10.1-5,14.2l6.9,27.1c0.5,1.8,0.1,3.7-1.1,5.2
		c-1.1,1.5-2.9,2.3-4.7,2.3H371.8z M364.8,238.5c0,0,0-10.2,0-10.2h-0.3v10.2C364.5,238.5,364.8,238.5,364.8,238.5z M364.7,227.6
		L364.7,227.6z"/>
	<path class="st0" d="M414.1,287.9c-6.2,0-11.6-2.2-16-6.6c-4.4-4.4-6.6-9.7-6.6-15.9v-37.9c0-6.2,2.2-11.6,6.6-16
		c4.4-4.4,9.8-6.6,16-6.6c6.3,0,11.6,2.2,16,6.7c4.3,4.4,6.5,9.8,6.5,16v7.9c0,3.3-2.7,6-6,6h-10.8c-3.3,0-6-2.7-6-6v-8.1
		c0,0,0,0,0,0l0,37.9c0,0,0,0,0,0l0-9.5c0-3.3,2.7-6,6-6h10.8c3.3,0,6,2.7,6,6v9.7c0,6.3-2.2,11.6-6.7,16
		C425.6,285.7,420.3,287.9,414.1,287.9z"/>
	<path class="st0" d="M439.2,287c-3.3,0-6-2.7-6-6v-69.3c0-3.3,2.7-6,6-6h10.5c3.3,0,6,2.7,6,6v52.9h12c3.3,0,6,2.7,6,6V281
		c0,3.3-2.7,6-6,6H439.2z"/>
	<path class="st0" d="M491.5,287.8c-6.2,0-11.6-2.2-16-6.6c-4.4-4.4-6.6-9.7-6.6-15.9v-53.6c0-3.3,2.7-6,6-6h10.2c3.3,0,6,2.7,6,6
		v53.5c0,0,0,0,0,0l0-53.5c0-3.3,2.7-6,6-6h10.9c3.3,0,6,2.7,6,6v53.6c0,6.3-2.2,11.7-6.7,16C503,285.6,497.6,287.8,491.5,287.8z"/>
	<path class="st0" d="M517.4,287c-3.3,0-6-2.7-6-6v-69.4c0-3.3,2.7-6,6-6H533c5.3,0,10.2,1.4,14.5,4.2c4,2.6,6.9,6.6,8.5,11.8
		c0.8,2.6,1.3,5.7,1.3,9.2c0,5.4-1.3,10-4,13.6c0.6,0.7,1.1,1.5,1.7,2.3c1.5,2.5,2.5,5.4,3.2,8.9c0.3,1.8,0.5,3.8,0.5,5.9
		c0,5.4-1.1,10.1-3.2,14c-1.8,3.3-4.4,6-7.6,8c-3.6,2.2-7.3,3.3-11,3.3H517.4z"/>
</g>
<g>
	<path class="st2" d="M225.7,517.5c-5.5,0-10.1-2.5-13.2-7c-6.2-9.2-4.1-16.6-1.2-21.1c4.4-6.9,8.8-13.9,13.2-20.8
		c3.7-5.8,7.4-11.7,11-17.5l7.1-11.2c11.1-17.6,22.6-35.7,34-53.6c-41.5-67.8-82.7-135.1-131.7-215.2c-9.2-15-18.3-30-27.5-45
		l-0.6-1.1C103.2,102.9,89.6,80.6,76,58.4c-5.6-9.2-2.1-16.7,3-20.7c2.9-2.2,6-3.4,9.2-3.4c3.5,0,8.4,1.3,12.4,7.5
		c7.3,11.5,14.6,23,21.9,34.5l8.5,13.4c36.4,57.6,72.8,115.2,109.2,172.8c11.7,18.5,57.3,90.6,57.3,90.6l14.1-22.3l142.8-225.9
		c12.2-19.3,24.4-38.5,36.6-57.8c4.3-6.8,9.5-8.3,13.1-8.3c2.9,0,5.7,0.9,8.4,2.7c5.5,3.6,9.8,11.4,3.7,21.4
		c-22.9,37.5-45.8,74.9-68.7,112.4c-34.9,57-122.1,199.7-122.1,199.7c-0.7,1.2-1.4,2.4-2.2,3.6l-0.1,0.1c-1.5,2.5-3.1,5.1-4.7,7.7
		c12.7,19.9,25.3,39.9,37.6,59.3l11.1,17.5l4.2,6.7c2.9,4.6,5.8,9.2,8.7,13.8c5.8,9.2,3.6,21.6-4.7,26.9c-2.6,1.6-5.7,2.5-9,2.5
		c-7.2,0-14.6-4-18.2-9.8c-4.1-6.7-8.2-13.4-12.2-20l-0.6-1c-1.6-2.7-3.3-5.4-4.9-8c-10.9-17.9-21.9-35.8-32.8-53.7l-1.1,1.8
		c-6.6,10.8-13.2,21.5-19.7,32.1c-10.8,17.7-21.4,35-31.7,52c-3.1,5.1-7.4,8.4-12.9,10C229.8,517.2,227.7,517.5,225.7,517.5z"/>
	<path class="st3" d="M509.7,45.7c-1.8-1.2-3.7-1.8-5.6-1.8c-3.4,0-6.4,2-8.9,5.9C483,69,470.8,88.3,458.6,107.6l-142.8,226
		l-18.3,29l-26.4-41.8c-11.7-18.5-23.4-37-35.1-55.5c-37.7-59.7-75.4-119.3-113.1-178.9l-4.4-7c-7.3-11.6-14.6-23.2-22-34.7
		c-2.2-3.5-4.9-5.2-8.2-5.2c-2.1,0-4.2,0.8-6.2,2.3c-2.7,2-6.4,6.6-1.8,14.1c13.8,22.6,27.6,45.1,41.4,67.7c9.2,15,18.3,30,27.5,45
		c49.5,80.9,91,148.9,133.2,217.7c0.1,0.1,0.1,0.2,0.1,0.2c0,0,0,0,0,0c-11.9,18.7-24,37.8-35.6,56.2l-7.1,11.2
		c-3.7,5.8-7.4,11.7-11,17.5c-4.4,7-8.8,13.9-13.2,20.8c-3,4.8-2.6,10.1,1.1,15.7c2.1,3.1,5.2,4.8,9,4.8c1.5,0,3.1-0.2,4.9-0.8
		c4.3-1.3,7.6-3.8,10-7.8c10.2-16.8,20.4-33.5,31.7-52c6.7-10.9,13.4-21.8,20.1-32.9l4.9-8c12.4,20.2,24.7,40.4,37.1,60.7
		c1.8,3,3.7,6.1,5.5,9.1c4,6.5,8.1,13.3,12.2,19.9c2.7,4.4,8.5,7.5,14,7.5c2.4,0,4.6-0.6,6.3-1.7c6-3.9,7.5-13.2,3.2-20.1
		c-2.9-4.6-5.8-9.2-8.7-13.8l-4.2-6.7l-11.1-17.5c-12.7-20-25.7-40.7-38.7-61c-0.4-0.7-0.5-1-0.5-1c0-0.1,0.1-0.3,0.4-0.8
		c2.1-3.1,4-6.3,5.9-9.4c0.7-1.2,1.5-2.5,2.2-3.7c0,0,87.2-142.6,122.1-199.7c22.9-37.4,45.8-74.9,68.7-112.4
		C517.2,51.5,511.6,46.9,509.7,45.7z M318.5,363.8c-1.4,2.4-2.3,3-4.9,1.3c-7-4.5-7-4.3-2.6-11.3c36-56.9,72-113.8,108-170.8
		c24.3-38.5,48.7-77.1,73.1-115.6c0.6-1,0.9-3.6,3.2-2.2c1.3,0.8,3.3,1,3.7,3.1c-0.4,0.8-0.9,1.6-1.3,2.4
		c-46.9,76.7-93.8,153.4-140.7,230C344.1,321.7,331.2,342.7,318.5,363.8z M94.7,66.4c-1.7-2.7-0.2-5.5,4.1-5.8
		c0.6,0,0.8,1.5,1.5,2.5c11.7,18.5,23.4,37,35.1,55.5c47,74.4,94.1,148.9,141.1,223.3c2.6,4.1,5,8.2,7.8,12.2c1.3,1.9,0.9,2.7-1,3.9
		c-7.5,4.8-7.5,4.8-12.2-2.9c-45.5-74.5-91-148.9-136.6-223.4C121.3,109.9,108,88.1,94.7,66.4z"/>
	<path class="st4" d="M507,49.8c-2.9-1.9-5.2-1.1-7.5,2.6C487.2,71.7,475,91,462.9,110.2c-47.6,75.3-95.2,150.6-142.8,226
		c-7.4,11.7-14.7,23.3-22.5,35.5c-1.1-1.6-1.8-2.7-2.5-3.8c-21.1-33.4-42.2-66.7-63.2-100.1c-37.9-59.9-75.7-119.8-113.6-179.7
		c-8.6-13.6-17.3-27.3-25.9-40.9c-2.1-3.3-4.3-3.7-7.1-1.6c-2.9,2.2-2.3,4.8-0.6,7.5c23,37.5,45.9,75.1,68.9,112.7
		c44.4,72.6,88.7,145.1,133.2,217.7c1.2,2,1.4,3.4,0.1,5.6c-14.3,22.4-28.5,44.9-42.7,67.3c-8.1,12.8-16.1,25.6-24.2,38.3
		c-2.3,3.7-1,7.1,1,10.2c2,3,5.2,2.9,8.4,2c3.2-0.9,5.4-2.8,7.2-5.6c10.5-17.4,21.1-34.7,31.7-52.1c9.7-15.8,19.3-31.5,29.2-47.7
		c0.9,1.3,1.6,2.4,2.3,3.5c13,21.3,26.1,42.7,39.1,64c5.9,9.7,11.8,19.4,17.7,29c2.7,4.3,9.8,6.5,13.3,4.2c3.7-2.4,4.5-8.7,1.7-13.2
		c-4.3-6.8-8.6-13.7-13-20.5c-16.6-26.2-33.1-52.4-49.8-78.6c-1.7-2.7-1.8-4.7,0-7.3c2.9-4.2,5.4-8.6,8-12.9
		c40.7-66.6,81.4-133.1,122.1-199.7c22.9-37.5,45.8-74.9,68.7-112.4C509.8,54,509.6,51.6,507,49.8z M283.3,357.9
		c-7.5,4.8-7.5,4.8-12.2-2.9c-45.5-74.5-91-148.9-136.6-223.4c-13.3-21.8-26.6-43.6-39.9-65.4c-1.7-2.7-0.2-5.5,4.1-5.8
		c0.6,0,0.8,1.5,1.5,2.5c11.7,18.5,23.4,37,35.1,55.5c47,74.4,94.1,148.9,141.1,223.3c2.6,4.1,5,8.2,7.8,12.2
		C285.5,356,285.1,356.8,283.3,357.9z M497.6,70.7c-46.9,76.7-93.8,153.4-140.7,230c-12.8,21-25.7,42-38.5,63
		c-1.4,2.4-2.3,3-4.9,1.3c-7-4.5-7-4.3-2.6-11.3c36-56.9,72-113.8,108-170.8c24.3-38.5,48.7-77.1,73.1-115.6c0.6-1,0.9-3.6,3.2-2.2
		c1.3,0.8,3.3,1,3.7,3.1C498.5,69.1,498.1,70,497.6,70.7z"/>
	<path class="st2" d="M495.3,65.2c-2.3-1.4-2.6,1.2-3.2,2.2c-24.4,38.5-48.7,77.1-73.1,115.6c-36,56.9-72,113.9-108,170.8
		c-4.5,7-4.4,6.9,2.6,11.3c2.6,1.7,3.5,1,4.9-1.3c12.8-21.1,25.6-42,38.5-63c46.9-76.7,93.8-153.3,140.7-230
		c0.5-0.8,0.9-1.6,1.3-2.4C498.6,66.2,496.6,66.1,495.3,65.2z M344.2,311.9c-9.6,15.7-19.6,32-29.3,48.1c-0.5-0.3-1-0.6-1.4-0.9
		c0.4-0.8,1-1.7,1.6-2.5l0.1-0.2c18.7-29.6,37.4-59.1,56.1-88.7L344.2,311.9z"/>
	<path class="st2" d="M284.2,354.1c-2.7-4-5.2-8.1-7.8-12.2c-47.1-74.4-94.1-148.9-141.1-223.3c-11.7-18.5-23.4-37-35.1-55.5
		c-0.6-1-0.9-2.6-1.5-2.5c-4.3,0.3-5.8,3.1-4.1,5.8c13.3,21.8,26.6,43.6,39.9,65.4c45.5,74.5,91,148.9,136.6,223.4
		c4.7,7.7,4.6,7.6,12.2,2.9C285.1,356.8,285.5,356,284.2,354.1z M277.4,355.7c-0.6-0.8-1.3-2-2-3.2l-55.8-91.4
		c14.1,22.3,52.7,83.4,52.7,83.4c0.8,1.3,1.6,2.5,2.4,3.8c1.3,2.1,2.7,4.3,4.1,6.5C278.3,355.2,277.8,355.5,277.4,355.7z"/>
</g>
<path class="st0" d="M134.6,165.3c0,0,14.8-2.8,17.2-13.8c2.4-11,2.7-46.8,2.7-46.8l104.9-27.8h68l113.2,30.3v53.4l14.9,4.6
	l23.5,37.6l-30.6,133.2l-47.9,81.5l-41.8,31.3l-40.4,24.3l-24.6,8.6l-17.3-6.3L222,442.2l-48-52l-42.6-98.2L134.6,165.3z"/>
<g>
	<path class="st2" d="M131.3,161.1h-19.9l0.2,33.8H57.6v-5h49l-0.2-28.8c0-0.2,0-0.5,0.1-0.7c0.1-1.1,0.6-2.1,1.4-2.9
		c0.9-1,2.2-1.5,3.5-1.5h15.9l3.5,4.3L131.3,161.1z"/>
	<path class="st2" d="M450.4,103.1v12.6l-4.3,4.5l-0.1,0.1v-14.8L331.2,74.1c0-0.2,0-0.5,0-0.8c0-19.2-15.6-34.8-34.8-34.8
		s-34.8,15.6-34.8,34.8c0,0.2,0,0.4,0,0.6l-115.4,31.5v12.5l-0.1-0.1l-4.3-4.5v-10.2c0.6-1.2,1.7-2.1,3.1-2.5l1.2-0.3l110.6-30.1
		c1.7-20.4,18.8-36.5,39.7-36.5c20.9,0,38.1,16.2,39.7,36.7l110,30l1.3,0.3C448.6,101,449.7,101.9,450.4,103.1z"/>
	<path class="st2" d="M532.9,189.9v5c-0.2,0-52.4,0-52.4,0l0.2-33.8h-17.7l4.1-5l6.4,0h7.2c1.3,0,2.6,0.5,3.5,1.5
		c0.9,0.9,1.5,2.2,1.5,3.5l-0.2,28.8L532.9,189.9z"/>
</g>
<path class="st2" d="M296.1,98.2c-13.7,0-24.8-11.1-24.8-24.8s11.1-24.8,24.8-24.8c13.7,0,24.8,11.1,24.8,24.8
	S309.8,98.2,296.1,98.2z"/>
<path class="st3" d="M394,156.4v-11.1l-97.9-26.9l-97.9,26.9v11.1c0,18.9-9.3,36.1-24.3,46.5h244.3C403.3,192.5,394,175.3,394,156.4
	z"/>
<path class="st5" d="M196.6,400c26.2,32.3,61.3,55.4,99.5,68.5c38.3-13.2,73.4-36.2,99.5-68.5c20.6-25.5,37.2-56.6,49.2-92.7
	c2.1-6.1,3.9-12.2,5.6-18.1h-31.3c-0.9,3.1-1.9,6.2-3,9.4c-24,71.3-62.8,118.4-120,139.8c-57.3-21.5-96-68.5-120-139.8
	c-1.1-3.2-2.1-6.3-3-9.4h-31.3c1.7,5.9,3.5,12,5.6,18.1C159.4,343.4,176,374.5,196.6,400z"/>
<path class="st5" d="M191.2,156.4v-16.5l89.5-24.6c-11.3-4.2-20.7-12.9-25.6-24.1L161.2,117v39.5c0,10.8-8.8,19.7-19.7,19.7h-15.1
	l0.1,15.1c0,0.6,0,4.8,0.5,11.8h32C177.8,195.8,191.2,177.6,191.2,156.4z"/>
<path class="st5" d="M465.6,191.1l0.1-15.1h-15.1c-10.8,0-19.7-8.8-19.7-19.7V117l-93.7-25.6c-4.9,11.3-14.2,19.9-25.6,24.1
	l89.3,24.5v16.5c0,21.2,13.4,39.4,32.2,46.5h32C465.6,195.9,465.6,191.7,465.6,191.1z"/>
<polygon class="st3" points="296.1,55.4 300.3,68.1 313.6,68.1 302.8,75.9 306.9,88.6 296.1,80.8 285.3,88.6 289.5,75.9 278.6,68.1 
	292,68.1 "/>
<g>
	<polygon class="st2" points="257.4,174.7 260.3,183.6 269.7,183.6 262.1,189.1 265,198 257.4,192.5 249.9,198 252.7,189.1 
		245.2,183.6 254.5,183.6 	"/>
	<polygon class="st2" points="218.5,174.7 221.4,183.6 230.7,183.6 223.1,189.1 226,198 218.5,192.5 210.9,198 213.8,189.1 
		206.2,183.6 215.6,183.6 	"/>
	<polygon class="st2" points="374.3,174.7 377.2,183.6 386.6,183.6 379,189.1 381.9,198 374.3,192.5 366.8,198 369.7,189.1 
		362.1,183.6 371.4,183.6 	"/>
	<polygon class="st2" points="335.4,174.7 338.3,183.6 347.6,183.6 340.1,189.1 342.9,198 335.4,192.5 327.8,198 330.7,189.1 
		323.1,183.6 332.5,183.6 	"/>
	<polygon class="st2" points="296.4,174.7 299.3,183.6 308.7,183.6 301.1,189.1 304,198 296.4,192.5 288.8,198 291.7,189.1 
		284.1,183.6 293.5,183.6 	"/>
</g>
<path class="st3" d="M457.7,289.2c-1.2,4.3-2.4,8.6-3.8,13c-0.8,2.4-1.5,4.9-2.4,7.3c-12.3,36.8-29.4,68.6-50.4,94.8
	c-42.1,52.6-105,73.2-105,73.2s-63.3-20.4-105-73.2c-20.8-26.4-38.1-58-50.4-94.8c-0.8-2.5-1.6-4.9-2.4-7.3c-1.4-4.4-2.6-8.7-3.8-13
	l-77,0v8c0,0,53.7,0,70.9,0c0.2,0.8,0.5,1.7,0.7,2.5c0.2,0.8,0.5,1.7,0.8,2.5c1,3.3,2,6.6,3.1,9.9c0.3,1,0.7,2,1,3.1
	c0.4,1,0.7,2,1.1,3.1c0.7,2.1,1.5,4.2,2.3,6.3c0.3,0.9,0.7,1.8,1,2.7c0.4,1.1,0.9,2.2,1.3,3.3c0.3,0.9,0.7,1.7,1,2.6
	c0.4,1,0.8,2,1.2,3c0.4,0.9,0.8,1.9,1.2,2.8c0.4,0.9,0.8,1.9,1.2,2.9c2.4,5.6,5,11,7.7,16.3c0.4,0.8,0.8,1.7,1.3,2.5
	c0.9,1.7,1.7,3.3,2.6,5c0.4,0.7,0.8,1.4,1.2,2.1c1.7,3.1,3.4,6.1,5.2,9.1c0.5,0.8,1,1.7,1.5,2.5c0.2,0.4,0.5,0.8,0.7,1.2
	c0.4,0.6,0.7,1.2,1.1,1.8c2.4,3.9,4.9,7.7,7.4,11.4c1.2,1.7,2.3,3.4,3.5,5c26.5,35,51,52.1,51,52.1c0.8,0.6,1.6,1.2,2.4,1.8
	c1.6,1.2,3.3,2.3,4.9,3.4c0.5,0.4,1.1,0.7,1.6,1.1c5.4,3.7,10.7,6.9,15.7,9.8c0.9,0.5,1.8,1,2.7,1.5c9.8,5.4,18.6,9.4,25.4,12.2
	c1,0.4,2,0.8,2.9,1.2c0.3,0.1,0.6,0.2,0.9,0.4c0.9,0.4,1.8,0.7,2.6,1c1.4,0.5,2.6,0.9,3.7,1.3c0.4,0.1,0.7,0.2,1,0.4
	c2.1,0.7,3.4,1.1,4,1.2c0.2,0,0.2,0.1,0.3,0.1c0,0,0,0,0,0s33.9-10.8,69.2-36.8l2.5,3.1c2.1-1.6,4.1-3.2,6.2-4.9l-2.4-2.9
	c5.9-4.6,11.8-9.7,17.5-15.1l2.4,2.7c1.9-1.9,3.8-3.8,5.8-5.7l-2.4-2.7c1.9-2,3.8-4,5.6-6.1l2.5,2.7c5.6-6.1,10-13.8,15.3-20.8
	l-2-2.1c17.4-24.5,31.9-53,42.7-85.3c1.1-3.3,2.2-6.6,3.1-9.9c0.5-1.7,1-3.3,1.5-5c0,0,53.4,0,69.2,0v-8
	C517.1,289.2,457.7,289.2,457.7,289.2z"/>
<path class="st6" d="M532.9,289.2v8c-15.9,0-69.2,0-69.2,0c-0.5,1.7-1,3.3-1.5,5c-1,3.3-2,6.6-3.1,9.9
	c-10.8,32.3-25.3,60.8-42.7,85.3l1.4,1.4c-5.4,7-9.4,14.8-15,20.9c-1.9,2.1-3.5,4.6-5.4,6.6c-1.9,2-3.8,3.9-5.8,5.7
	c-5.8,5.6-11.7,10.7-17.5,15.4c-2.1,1.7-4.2,3.3-6.2,4.9l-2.5-3.1c-35.3,25.9-69.2,36.8-69.2,36.8h0v-8.5h0c0,0,62.9-20.6,105-73.2
	c21-26.2,38.1-58,50.4-94.8c0.8-2.5,1.6-4.9,2.4-7.3c1.4-4.4,2.6-8.7,3.8-13C457.7,289.2,517.1,289.2,532.9,289.2z"/>
<path class="st6" d="M394,156.4v-11.1l-97.9-26.9l0,0v84.5h122.1C403.3,192.5,394,175.3,394,156.4z"/>
<path class="st6" d="M353.4,289.2c5,9.2,7.9,19.8,7.9,31c0,35.7-29,64.7-64.7,64.7c-0.2,0-0.3,0-0.5,0v46c0,0,0,0,0,0
	c53.9-21.1,90.4-66.4,113.4-134.6c0.8-2.4,1.6-4.8,2.3-7.2H353.4z"/>
<g>
	<text transform="matrix(1 0 0 1 241.4214 165.2523)" class="st0 st7 st8">EST. 2025</text>
</g>
<path class="st3" d="M532.7,194.9h-52.2l0.2-33.8h-30.2c-1.3,0-2.5-0.6-3.4-1.5l0.1-0.1c-0.8-0.9-1.3-2-1.3-3.3v-50.7L331.2,74.1
	c0-0.2,0-0.5,0-0.8c0-19.2-15.6-34.8-34.8-34.8s-34.8,15.6-34.8,34.8c0,0.2,0,0.4,0,0.6l-115.4,31.5v12.5l-0.3-0.3v40.6
	c-0.7,1.7-2.4,2.9-4.3,2.9h-30.2l0.2,33.8H57.6v8H120c-0.4-6.9-0.5-11.1-0.5-11.7l-0.1-22.1h22.1c7,0,12.7-5.7,12.7-12.7v-44.8
	L262.7,82c3.8,15,17.5,26.2,33.7,26.2c16.2,0,29.8-11.1,33.7-26L438,111.6v44.8c0,7,5.7,12.7,12.6,12.7h22.1l-0.1,22.1
	c0,0.6,0,4.8-0.5,11.7h60.6c0.1,0,0.1,0,0.2,0v-8C532.9,194.9,532.8,194.9,532.7,194.9z M296.4,98.2c-13.7,0-24.8-11.1-24.8-24.8
	c0-13.7,11.1-24.8,24.8-24.8c13.7,0,24.8,11.1,24.8,24.8C321.2,87.1,310.1,98.2,296.4,98.2z"/>
<path class="st2" d="M146.1,101v55.6c0,2.5-2,4.5-4.5,4.5h-35.2c0.1-1.1,0.6-2.8,1.4-3.5c0.9-1,2.2-1.5,3.5-1.5h28.4
	c1.1,0,2-0.9,2-2v-50.3c0.6-1.2,1.7-2.1,3.1-2.5L146.1,101z"/>
<path class="st2" d="M477.1,156.1l-3.5,4.9c0,0-0.1,0.1-0.1,0.1h-23.4c-2.3,0-4.1-1.8-4.1-4.1v-52.2l1.3,0.3
	c1.4,0.4,2.4,1.3,3.1,2.4v47.3c0,0.7,0.6,1.3,1.3,1.3H477.1z"/>
<path class="st2" d="M229.1,458c-0.1-0.1-0.3-0.2-0.4-0.3l0,0C228.9,457.8,229,457.9,229.1,458z"/>
<path class="st2" d="M222.4,452.7c7.4,5.7,14.5,10.6,21.3,14.8c0.1,0,0.2,0.1,0.2,0.1c22.7,13.5,41.5,20.6,47.2,22.6
	c0.1,0,0.2,0.1,0.3,0.1c0.1,0,0.2,0.1,0.2,0.1c0.2,0.1,0.5,0.2,0.6,0.2c0.1,0,0.2,0.1,0.2,0.1c0.1,0,0.2,0.1,0.2,0.1
	c0.1,0,0.1,0,0.1,0.1l1.4,0.4l0.1,0l1.3-0.3c0.4-0.1,3.6-1,8.9-2.9c0,0,0,0,0,0c11.6-4.2,33.1-13.3,56.7-30c0,0,0,0,0,0
	c0.1-0.1,0.3-0.2,0.4-0.3l0,0c1.4-0.9,2.8-1.8,4.2-2.8c28.3-20,51.4-52.4,51.4-52.4c1.9-2.7,2.8-4.2,2.8-4.2c3-4.3,5.9-8.7,8.7-13.2
	c0,0,0-0.1,0.1-0.1c13.4-21.6,24.5-45.5,33.2-71.3c1.2-3.7,2.4-7.5,3.6-11.5l67.2,0v-5c0,0-53.7,0-70.9,0c-0.2,0.8-0.5,1.7-0.7,2.5
	c-0.2,0.8-0.5,1.7-0.8,2.5c-1,3.3-2,6.6-3.1,9.9c-0.3,1-0.7,2-1,3.1c-0.4,1-0.7,2-1.1,3.1c-0.7,2.1-1.5,4.2-2.3,6.3
	c-0.3,0.9-0.7,1.8-1,2.7c-0.4,1.1-0.9,2.2-1.3,3.3c-0.3,0.9-0.7,1.7-1,2.6c-0.4,1-0.8,2-1.2,3c-0.4,0.9-0.8,1.9-1.2,2.8
	c-0.4,1-0.8,1.9-1.2,2.9c-2.4,5.6-5,11-7.7,16.3c-0.4,0.8-0.8,1.7-1.3,2.5c-0.9,1.7-1.7,3.3-2.6,5c-0.4,0.7-0.8,1.4-1.2,2.1
	c-1.7,3.1-3.4,6.1-5.2,9.1c-0.5,0.8-1,1.7-1.5,2.5c-0.2,0.4-0.5,0.8-0.7,1.2c-0.4,0.6-0.7,1.2-1.1,1.8c-2.4,3.9-4.9,7.7-7.4,11.4
	c-1.2,1.7-2.3,3.4-3.5,5c-26.5,35-51,52.1-51,52.1c-0.8,0.6-1.6,1.2-2.4,1.8c-1.6,1.2-3.3,2.3-4.9,3.4c-0.5,0.4-1.1,0.7-1.6,1.1
	c-5.4,3.7-10.7,6.9-15.7,9.8c-0.9,0.5-1.8,1-2.7,1.5c-9.8,5.4-18.6,9.4-25.5,12.2c-1,0.4-2,0.8-2.9,1.2c-0.3,0.1-0.6,0.2-0.9,0.4
	c-0.9,0.4-1.8,0.7-2.6,1c-1.4,0.5-2.6,0.9-3.7,1.3c-0.4,0.1-0.7,0.2-1,0.4c-2.1,0.7-3.4,1.1-4,1.2c-0.2,0-0.3,0.1-0.3,0.1
	c0,0,0,0,0,0s-33.9-10.8-69.2-36.8l-2.5,3.1L222.4,452.7z"/>
<path class="st2" d="M368.1,452.7c-7.4,5.7-14.5,10.6-21.3,14.8c-0.1,0-0.2,0.1-0.2,0.1c-22.7,13.5-41.5,20.6-47.2,22.6
	c-0.1,0-0.2,0.1-0.3,0.1c-0.1,0-0.2,0.1-0.2,0.1c-0.2,0.1-0.5,0.2-0.6,0.2c-0.1,0-0.2,0.1-0.2,0.1c-0.1,0-0.2,0.1-0.2,0.1
	c-0.1,0-0.1,0-0.1,0.1l-1.4,0.4l-0.1,0l-1.3-0.3c-0.4-0.1-3.6-1-8.9-2.9c0,0,0,0,0,0c-11.6-4.2-33.1-13.3-56.7-30c0,0,0,0,0,0
	c-0.1-0.1-0.3-0.2-0.4-0.3l0,0c-1.4-0.9-2.8-1.8-4.2-2.8c-28.3-20-51.4-52.4-51.4-52.4c-1.9-2.7-2.8-4.2-2.8-4.2
	c-3-4.3-5.9-8.7-8.7-13.2c0,0,0-0.1-0.1-0.1c-13.4-21.6-24.5-45.5-33.2-71.3c-1.2-3.7-2.4-7.5-3.6-11.5l-67.2,0v-5
	c0,0,53.7,0,70.9,0c0.2,0.8,0.5,1.7,0.7,2.5c0.2,0.8,0.5,1.7,0.8,2.5c1,3.3,2,6.6,3.1,9.9c0.3,1,0.7,2,1,3.1c0.4,1,0.7,2,1.1,3.1
	c0.7,2.1,1.5,4.2,2.3,6.3c0.3,0.9,0.7,1.8,1,2.7c0.4,1.1,0.9,2.2,1.3,3.3c0.3,0.9,0.7,1.7,1,2.6c0.4,1,0.8,2,1.2,3
	c0.4,0.9,0.8,1.9,1.2,2.8c0.4,1,0.8,1.9,1.2,2.9c2.4,5.6,5,11,7.7,16.3c0.4,0.8,0.8,1.7,1.3,2.5c0.9,1.7,1.7,3.3,2.6,5
	c0.4,0.7,0.8,1.4,1.2,2.1c1.7,3.1,3.4,6.1,5.2,9.1c0.5,0.8,1,1.7,1.5,2.5c0.2,0.4,0.5,0.8,0.7,1.2c0.4,0.6,0.7,1.2,1.1,1.8
	c2.4,3.9,4.9,7.7,7.4,11.4c1.2,1.7,2.3,3.4,3.5,5c26.5,35,51,52.1,51,52.1c0.8,0.6,1.6,1.2,2.4,1.8c1.6,1.2,3.3,2.3,4.9,3.4
	c0.5,0.4,1.1,0.7,1.6,1.1c5.4,3.7,10.7,6.9,15.7,9.8c0.9,0.5,1.8,1,2.7,1.5c9.8,5.4,18.6,9.4,25.4,12.2c1,0.4,2,0.8,2.9,1.2
	c0.3,0.1,0.6,0.2,0.9,0.4c0.9,0.4,1.8,0.7,2.6,1c1.4,0.5,2.6,0.9,3.7,1.3c0.4,0.1,0.7,0.2,1,0.4c2.1,0.7,3.4,1.1,4,1.2
	c0.2,0,0.3,0.1,0.3,0.1c0,0,0,0,0,0s33.9-10.8,69.2-36.8l2.5,3.1L368.1,452.7z"/>
<path class="st3" d="M411.8,289.2c-0.7,2.4-1.5,4.8-2.3,7.2c-23,68.2-59.5,113.5-113.4,134.6h0c-53.9-21.1-90.4-66.4-113.4-134.6
	c-0.8-2.4-1.6-4.8-2.3-7.2H411.8z"/>
<g>
	<path class="st5" d="M262.1,296.5c-8.8,0-17.6,0-26.4,0c-2.4,0-4.4,1-5.4,2.7c-1,1.7-0.8,3.9,0.4,5.9l5.2,8.8
		c18.2,30.5,36.4,60.9,54.6,91.4c1.4,2.4,3.5,3.8,5.6,3.8c2.1,0,4.2-1.4,5.6-3.8c9.6-16.1,19.2-32.1,28.8-48.2l13.5-22.6
		c5.8-9.8,11.7-19.5,17.5-29.3c0.8-1.4,1.3-2.6,1-3.9c-0.7-3.2-2.7-4.7-6.2-4.7L262.1,296.5z M374,298.2c-0.9-3.6-2.6-6.7-5.2-9
		h-8.9c-1.3-0.3-2.6-0.4-4-0.4c-19.9,0-39.8,0-59.6,0H286c-16.6,0-33.1,0.1-49.7,0c-1.5,0-2.8,0.2-4.1,0.5h-8.6
		c-1.5,1.3-2.8,2.9-3.7,4.7c-3.1,5.6-2.7,12.3,0.9,17.8c2.6,3.9,5,8.1,7.4,12.2l0.1,0.2c1.2,2,2.3,4,3.5,5.9l15.3,25.6
		c11,18.5,22.4,37.6,33.7,56.3c3.4,5.6,9.1,9,15.3,9c6.3,0,12.1-3.4,15.6-9.2c20-33.5,40.1-67,60.1-100.5
		C374.2,306.9,375,302.5,374,298.2z"/>
	<path class="st5" d="M372,298.7c-1-4.2-3.3-7.4-6.5-9.5H226.9c-2.2,1.4-4,3.3-5.2,5.6c-2.7,5-2.4,10.9,0.8,15.7
		c2.7,4,5.1,8.3,7.6,12.4c1.1,2,2.3,4,3.5,5.9l13,21.8c11.8,19.7,23.9,40.1,35.9,60.1c3,5,8.1,8,13.6,8c5.6,0,10.8-3.1,13.9-8.2
		c20-33.5,40.1-67,60.1-100.5C372.2,306.3,372.9,302.5,372,298.7z M363.2,306.1c-10.3,17.3-20.7,34.6-31,51.9
		c-9.6,16.1-19.2,32.2-28.8,48.2c-3.8,6.3-10.9,6.4-14.7,0c-19.9-33.4-39.9-66.8-59.8-100.2c-3.4-5.7,0-11.6,6.7-11.6
		c20.2,0,40.4,0,60.6,0c20,0,40.1,0,60.1,0c4.5,0,7.3,2.2,8.2,6.3C365,302.8,364.2,304.5,363.2,306.1z"/>
	<path class="st0" d="M369.9,299.2c-1.5-6.5-6.8-10.4-14-10.4c-19.9,0-39.8,0-59.6,0H286c-16.6,0-33.1,0.1-49.7,0
		c-11.7-0.1-18,11.7-12,20.7c3.9,6,7.4,12.3,11.1,18.5c16.3,27.3,32.6,54.6,48.9,81.8c5.7,9.4,18.1,9.3,23.8-0.2
		c20-33.5,40.1-67,60.1-100.5C370,305.9,370.7,302.7,369.9,299.2z M363.2,306.1c-10.3,17.3-20.7,34.6-31,51.9
		c-9.6,16.1-19.2,32.2-28.8,48.2c-3.8,6.3-10.9,6.4-14.7,0c-19.9-33.4-39.9-66.8-59.8-100.2c-3.4-5.7,0-11.6,6.7-11.6
		c20.2,0,40.4,0,60.6,0c20,0,40.1,0,60.1,0c4.5,0,7.3,2.2,8.2,6.3C365,302.8,364.2,304.5,363.2,306.1z"/>
	<path class="st0" d="M308.8,317.6c5.9,0.1,10.5,4.8,10.4,10.6c-0.1,5.9-4.8,10.6-10.8,10.5c-5.9-0.1-10.5-4.8-10.4-10.8
		C298.1,322.1,302.9,317.6,308.8,317.6z M308.6,323.9c0-1.9-1.4-3.2-3.3-3.2c-1.9,0-3.3,1.4-3.3,3.3c0,2,1.4,3.4,3.4,3.3
		C307.3,327.2,308.6,325.8,308.6,323.9z"/>
	<path class="st0" d="M298,370.4c0-5.9,4.8-10.6,10.8-10.5c5.7,0.1,10.5,4.9,10.5,10.7c0,5.7-4.9,10.5-10.6,10.6
		C302.9,381.2,298,376.3,298,370.4z M305.3,369.7c1.8,0,3.3-1.5,3.3-3.3c0-1.9-1.3-3.3-3.2-3.3c-2,0-3.5,1.5-3.4,3.4
		C301.9,368.2,303.5,369.7,305.3,369.7z"/>
	<path class="st0" d="M270,359.9c-5.8,0-10.5-4.9-10.5-10.6c0-5.7,4.9-10.6,10.6-10.6c5.8,0,10.7,4.8,10.7,10.7
		C280.8,355.2,275.9,359.9,270,359.9z M266.8,348.5c1.8,0,3.3-1.5,3.4-3.3c0.1-1.8-1.6-3.5-3.4-3.5c-1.8,0-3.3,1.4-3.3,3.3
		C263.5,347,264.9,348.5,266.8,348.5z"/>
	<path class="st0" d="M334.1,317.6c6,0,10.7,4.7,10.7,10.6c-0.1,5.9-4.8,10.5-10.8,10.5c-5.8-0.1-10.5-4.8-10.4-10.6
		C323.6,322.2,328.3,317.6,334.1,317.6z M334.1,323.9c0-1.9-1.5-3.3-3.3-3.3c-2,0-3.4,1.5-3.3,3.5c0.1,1.9,1.4,3.2,3.4,3.1
		C332.8,327.2,334.1,325.8,334.1,323.9z"/>
	<path class="st0" d="M270.5,296.4c5.8,0.2,10.6,5.3,10.3,11.1c-0.2,5.7-5.2,10.4-10.9,10.2c-5.7-0.2-10.5-5.2-10.3-10.8
		C259.7,300.9,264.7,296.2,270.5,296.4z M270.2,302.8c0-1.9-1.6-3.4-3.5-3.3c-1.9,0.1-3.2,1.5-3.1,3.4c0,1.9,1.4,3.3,3.2,3.4
		C268.6,306.3,270.2,304.7,270.2,302.8z"/>
	<path class="st0" d="M332.6,307c0,5.9-4.6,10.6-10.4,10.7c-5.9,0.1-10.7-4.7-10.7-10.6c0-5.9,4.6-10.5,10.4-10.6
		C327.8,296.3,332.6,301,332.6,307z M322.1,302.9c0.1-1.8-1.4-3.3-3.2-3.4c-1.9-0.1-3.5,1.4-3.6,3.2c-0.1,1.8,1.6,3.5,3.4,3.5
		C320.4,306.3,322,304.7,322.1,302.9z"/>
	<path class="st0" d="M233.6,306.8c0.1-5.8,4.8-10.5,10.6-10.5c5.8,0,10.7,5,10.6,10.8c-0.1,5.7-5,10.5-10.7,10.5
		C238.3,317.6,233.5,312.7,233.6,306.8z M240.8,299.5c-1.9,0-3.5,1.5-3.4,3.4c0,1.7,1.7,3.3,3.4,3.3c1.8,0,3.4-1.6,3.4-3.5
		C244.1,300.9,242.7,299.5,240.8,299.5z"/>
	<path class="st0" d="M306.7,307.1c0,5.8-4.7,10.5-10.5,10.6c-5.7,0-10.7-4.8-10.7-10.4c0-5.8,4.8-10.8,10.6-10.8
		C301.9,296.4,306.7,301.1,306.7,307.1z M292.8,299.5c-1.9,0-3.3,1.4-3.4,3.2c-0.1,1.9,1.5,3.6,3.3,3.5c1.8,0,3.5-1.7,3.4-3.5
		C296.1,300.9,294.6,299.5,292.8,299.5z"/>
	<path class="st0" d="M337.5,306.9c0.1-5.8,4.8-10.5,10.6-10.5c5.8,0,10.7,5,10.5,10.8c-0.1,5.9-4.8,10.5-10.6,10.5
		C342.2,317.6,337.4,312.8,337.5,306.9z M348,302.8c0-1.9-1.4-3.3-3.2-3.3c-1.9,0-3.5,1.5-3.5,3.4c0,1.7,1.6,3.3,3.3,3.4
		C346.5,306.3,348,304.7,348,302.8z"/>
	<path class="st0" d="M285.3,392.6c0-5.9,4.6-10.5,10.4-10.6c6,0,10.7,4.6,10.7,10.5c0,5.9-4.6,10.5-10.4,10.6
		C290.1,403.3,285.3,398.6,285.3,392.6z M292.5,391.7c2,0,3.3-1.3,3.3-3.2c0-2-1.4-3.5-3.4-3.4c-1.8,0-3.3,1.6-3.3,3.4
		C289.2,390.3,290.6,391.7,292.5,391.7z"/>
	<path class="st0" d="M272.6,371.5c-0.1-5.8,4.6-10.6,10.4-10.7c5.9-0.1,10.7,4.6,10.7,10.5c0,5.9-4.7,10.7-10.6,10.7
		C277.3,382.1,272.6,377.4,272.6,371.5z M279.8,364c-1.9,0-3.5,1.6-3.5,3.4c0.1,1.7,1.7,3.3,3.4,3.4c1.8,0.1,3.4-1.6,3.4-3.5
		C283.1,365.4,281.7,364,279.8,364z"/>
	<path class="st0" d="M295.7,359.9c-5.8-0.1-10.4-4.8-10.4-10.6c0-5.8,4.8-10.6,10.5-10.6c5.9,0,10.7,4.9,10.7,10.7
		C306.4,355.3,301.6,360,295.7,359.9z M295.8,345.2c0-1.8-1.4-3.3-3.1-3.4c-1.8-0.1-3.5,1.5-3.5,3.3c0,1.9,1.6,3.5,3.5,3.4
		C294.4,348.5,295.8,347,295.8,345.2z"/>
	<path class="st0" d="M272.6,328.1c0-5.9,4.6-10.5,10.4-10.5c6,0,10.7,4.6,10.7,10.5c0,6-4.7,10.6-10.7,10.5
		C277.2,338.7,272.6,334,272.6,328.1z M283.1,324.1c0-1.9-1.3-3.4-3.2-3.4c-1.8-0.1-3.5,1.4-3.6,3.1c-0.1,1.9,1.5,3.5,3.4,3.5
		C281.7,327.3,283,326,283.1,324.1z"/>
	<path class="st0" d="M332.1,349.4c0,5.9-4.7,10.5-10.5,10.5c-5.9,0-10.6-4.8-10.6-10.7c0.1-5.8,4.8-10.5,10.6-10.5
		C327.4,338.7,332.2,343.5,332.1,349.4z M318.2,341.8c-1.7,0-3.3,1.6-3.4,3.3c0,1.9,1.5,3.5,3.4,3.5c1.8,0,3.3-1.5,3.4-3.3
		C321.7,343.4,320.1,341.8,318.2,341.8z"/>
	<path class="st0" d="M257.7,317.6c6,0,10.5,4.7,10.4,10.7c-0.1,5.8-4.7,10.4-10.6,10.3c-5.9,0-10.5-4.7-10.4-10.8
		C247.1,322.1,251.8,317.6,257.7,317.6z M257.6,323.9c-0.1-1.8-1.6-3.2-3.4-3.2c-1.9,0-3.5,1.6-3.4,3.4c0.1,1.9,1.7,3.3,3.6,3.2
		C256.3,327.2,257.7,325.7,257.6,323.9z"/>
</g>
<path class="st6" d="M411.8,289.2c-0.7,2.4-1.5,4.8-2.3,7.2c-23,68.2-59.5,113.5-113.4,134.6h0V289.2H411.8z"/>
<path class="st0" d="M369.9,299.2c-1.2-5.2-4.9-8.8-10-10c-1.3-0.3-2.6-0.4-4-0.4c-19.9,0-39.8,0-59.6,0H286
	c-16.6,0-33.1,0.1-49.7,0c-1.5,0-2.8,0.2-4.1,0.5c-9,2.3-13.1,12.3-7.9,20.2c3.9,6,7.4,12.3,11.1,18.5
	c16.3,27.3,32.6,54.6,48.9,81.8c5.7,9.4,18.1,9.3,23.8-0.2c20-33.5,40.1-67,60.1-100.5C370,305.9,370.7,302.7,369.9,299.2z
	 M363.2,306.1c-10.3,17.3-20.7,34.6-31,51.9c-9.6,16.1-19.2,32.2-28.8,48.2c-3.8,6.3-10.9,6.4-14.7,0
	c-19.9-33.4-39.9-66.8-59.8-100.2c-3.4-5.7,0-11.6,6.7-11.6c20.2,0,40.4,0,60.6,0c20,0,40.1,0,60.1,0c4.5,0,7.3,2.2,8.2,6.3
	C365,302.8,364.2,304.5,363.2,306.1z"/>
<g>
	<g>
		<g>
			<path class="st9" d="M78.2,281H67l-8-22.1L50.9,281H39.6l13.6-34.9l-13.6-34.5h11.6l7.7,21.4l7.7-21.4h11.6l-13.6,34.5L78.2,281z
				"/>
			<path class="st9" d="M127.2,263.7c0.1,4.8-1.2,9-3.8,12.4c-1.7,2.3-4.1,4-7.2,4.9c-1.7,0.5-3.6,0.8-5.8,0.8c-4.1,0-7.5-1-10.2-3
				c-2.3-1.7-4-3.9-5.3-6.8c-1.3-2.9-2.1-6.1-2.3-9.8l10-0.7c0.4,4,1.5,7,3.2,8.8c1.3,1.4,2.7,2,4.3,1.9c2.3-0.1,4.1-1.2,5.5-3.4
				c0.7-1.1,1.1-2.6,1.1-4.6c0-2.9-1.3-5.7-3.9-8.6c-2.1-2-5.2-4.9-9.3-8.8c-3.5-3.4-5.9-6.4-7.4-9c-1.5-3-2.3-6.2-2.3-9.8
				c0-6.3,2.1-11.1,6.4-14.3c2.6-2,5.9-2.9,9.7-2.9c3.7,0,6.9,0.8,9.6,2.5c2.1,1.3,3.7,3.1,5,5.4c1.3,2.3,2,5,2.3,8l-10,1.8
				c-0.3-2.8-1.1-5.1-2.4-6.6c-1-1.1-2.3-1.7-4.2-1.7c-1.9,0-3.4,0.8-4.4,2.5c-0.8,1.4-1.2,3.1-1.2,5.1c0,3.2,1.4,6.4,4.1,9.7
				c1,1.3,2.6,2.7,4.6,4.4c2.4,2,4,3.5,4.8,4.3c2.6,2.6,4.6,5.1,6,7.6c0.7,1.2,1.2,2.3,1.6,3.3C126.6,259.6,127.2,261.8,127.2,263.7
				z"/>
			<path class="st9" d="M147.6,211.6l13.9,46.6v-46.6H172V281h-11.2l-14.4-44.4V281h-10.5v-69.4H147.6z"/>
			<path class="st9" d="M197.7,210.8c4.6,0,8.5,1.6,11.8,4.9c3.2,3.2,4.8,7.2,4.8,11.7v37.9c0,4.6-1.6,8.5-4.9,11.8
				c-3.2,3.2-7.2,4.8-11.7,4.8c-4.6,0-8.5-1.6-11.7-4.9c-3.2-3.2-4.8-7.2-4.8-11.7v-37.9c0-4.6,1.6-8.5,4.9-11.8
				C189.3,212.4,193.2,210.8,197.7,210.8z M203.4,227.1c0-1.7-0.6-3.1-1.7-4.2s-2.6-1.7-4.2-1.7c-1.7,0-3.1,0.6-4.3,1.7
				c-1.2,1.2-1.8,2.6-1.8,4.2v38c0,1.7,0.6,3.1,1.8,4.2c1.2,1.2,2.6,1.7,4.3,1.7c1.7,0,3.1-0.6,4.2-1.7s1.7-2.6,1.7-4.2V227.1z"/>
			<path class="st9" d="M239.9,210.8c4.6,0,8.5,1.6,11.8,4.9c3.2,3.2,4.8,7.2,4.8,11.7v37.9c0,4.6-1.6,8.5-4.9,11.8
				c-3.2,3.2-7.2,4.8-11.7,4.8c-4.6,0-8.5-1.6-11.7-4.9c-3.2-3.2-4.8-7.2-4.8-11.7v-37.9c0-4.6,1.6-8.5,4.9-11.8
				C231.4,212.4,235.3,210.8,239.9,210.8z M245.6,227.1c0-1.7-0.6-3.1-1.7-4.2c-1.2-1.2-2.6-1.7-4.2-1.7c-1.7,0-3.1,0.6-4.3,1.7
				c-1.2,1.2-1.8,2.6-1.8,4.2v38c0,1.7,0.6,3.1,1.8,4.2c1.2,1.2,2.6,1.7,4.3,1.7c1.7,0,3.1-0.6,4.2-1.7c1.2-1.2,1.7-2.6,1.7-4.2
				V227.1z"/>
			<path class="st9" d="M276.1,259v22h-10.5v-69.4h10.5v24.7l12.8-24.7h11.2l-14.3,28.3l16.8,41.1h-12.3l-11-28.2L276.1,259z"/>
			<path class="st9" d="M311.1,281v-69.4h29.8v10.5h-19.3V241h14.1v10.5h-14.1v18.9h19.3V281H311.1z"/>
			<path class="st9" d="M364.5,211.7c5.8,0,10.1,1.6,12.8,4.8c2.4,2.8,3.6,6.7,3.6,11.7v10.1c0,4.9-1.9,9.1-5.6,12.5l7.7,30.3h-11.3
				l-6.3-26.1c-0.3,0-0.6,0-0.9,0h-6V281H348v-69.3H364.5z M370.8,228.4c0-4-2-6-6-6h-6.3v22.2h6.3c1.7,0,3.1-0.6,4.2-1.8
				c1.2-1.2,1.7-2.6,1.7-4.3V228.4z"/>
			<path class="st9" d="M414.1,281.9c-4.6,0-8.5-1.6-11.8-4.8s-4.8-7.1-4.8-11.7v-37.9c0-4.6,1.6-8.5,4.9-11.8
				c3.2-3.2,7.2-4.8,11.7-4.8c4.6,0,8.5,1.6,11.7,4.9c3.2,3.2,4.8,7.2,4.8,11.7v7.9h-10.8v-8.1c0-1.7-0.6-3.1-1.8-4.3
				c-1.2-1.2-2.6-1.8-4.3-1.8c-1.7,0-3.1,0.6-4.2,1.8c-1.2,1.2-1.7,2.6-1.7,4.3v38c0,1.7,0.6,3.1,1.7,4.2s2.6,1.7,4.2,1.7
				c1.7,0,3.1-0.6,4.3-1.7c1.2-1.2,1.8-2.6,1.8-4.2v-9.6h10.8v9.7c0,4.6-1.6,8.5-4.9,11.7C422.5,280.3,418.6,281.9,414.1,281.9z"/>
			<path class="st9" d="M467.7,281h-28.5v-69.3h10.5v58.9h18V281z"/>
			<path class="st9" d="M491.5,281.8c-4.6,0-8.5-1.6-11.7-4.8c-3.2-3.2-4.8-7.1-4.8-11.7v-53.6h10.2v53.5c0,1.7,0.6,3.1,1.8,4.2
				c1.2,1.2,2.6,1.7,4.3,1.7s3.1-0.6,4.2-1.7c1.2-1.2,1.7-2.6,1.7-4.2v-53.5h10.9v53.6c0,4.6-1.6,8.6-4.9,11.7
				C500,280.2,496,281.8,491.5,281.8z"/>
			<path class="st9" d="M517.4,281v-69.4H533c4.1,0,7.9,1.1,11.2,3.3c2.8,1.8,4.9,4.7,6.1,8.6c0.7,2.1,1,4.5,1,7.4
				c0,4.6-1.2,8.4-3.7,11.2c-1,1.2-2.3,2.1-3.7,2.7c2.3,0.9,4.3,2.6,5.9,5.3c1.1,1.8,1.9,4.1,2.4,6.9c0.3,1.4,0.4,3,0.4,4.8
				c0,4.4-0.8,8.1-2.5,11.2c-1.3,2.4-3.1,4.3-5.5,5.8c-2.7,1.6-5.3,2.4-7.9,2.4H517.4z M528.7,239.9h4.4c3.2,0,5.4-1.6,6.5-4.8
				c0.4-1.2,0.6-2.6,0.6-4.4c0-2.9-0.7-5.1-2.1-6.5c-1.3-1.4-3-2-5-2h-4.4V239.9z M528.7,270.7h4.4c3.5,0,6-1.8,7.4-5.5
				c0.5-1.3,0.7-2.7,0.7-4.3c0-3.9-0.7-6.7-2.2-8.5c-1.3-1.6-3.3-2.4-5.9-2.4h-4.4V270.7z"/>
		</g>
	</g>
	<g>
		<g>
			<path d="M78.2,281H67l-8-22.1L50.9,281H39.6l13.6-34.9l-13.6-34.5h11.6l7.7,21.4l7.7-21.4h11.6l-13.6,34.5L78.2,281z"/>
			<path d="M127.2,263.7c0.1,4.8-1.2,9-3.8,12.4c-1.7,2.3-4.1,4-7.2,4.9c-1.7,0.5-3.6,0.8-5.8,0.8c-4.1,0-7.5-1-10.2-3
				c-2.3-1.7-4-3.9-5.3-6.8c-1.3-2.9-2.1-6.1-2.3-9.8l10-0.7c0.4,4,1.5,7,3.2,8.8c1.3,1.4,2.7,2,4.3,1.9c2.3-0.1,4.1-1.2,5.5-3.4
				c0.7-1.1,1.1-2.6,1.1-4.6c0-2.9-1.3-5.7-3.9-8.6c-2.1-2-5.2-4.9-9.3-8.8c-3.5-3.4-5.9-6.4-7.4-9c-1.5-3-2.3-6.2-2.3-9.8
				c0-6.3,2.1-11.1,6.4-14.3c2.6-2,5.9-2.9,9.7-2.9c3.7,0,6.9,0.8,9.6,2.5c2.1,1.3,3.7,3.1,5,5.4c1.3,2.3,2,5,2.3,8l-10,1.8
				c-0.3-2.8-1.1-5.1-2.4-6.6c-1-1.1-2.3-1.7-4.2-1.7c-1.9,0-3.4,0.8-4.4,2.5c-0.8,1.4-1.2,3.1-1.2,5.1c0,3.2,1.4,6.4,4.1,9.7
				c1,1.3,2.6,2.7,4.6,4.4c2.4,2,4,3.5,4.8,4.3c2.6,2.6,4.6,5.1,6,7.6c0.7,1.2,1.2,2.3,1.6,3.3C126.6,259.6,127.2,261.8,127.2,263.7
				z"/>
			<path d="M147.6,211.6l13.9,46.6v-46.6H172V281h-11.2l-14.4-44.4V281h-10.5v-69.4H147.6z"/>
			<path d="M197.7,210.8c4.6,0,8.5,1.6,11.8,4.9c3.2,3.2,4.8,7.2,4.8,11.7v37.9c0,4.6-1.6,8.5-4.9,11.8c-3.2,3.2-7.2,4.8-11.7,4.8
				c-4.6,0-8.5-1.6-11.7-4.9c-3.2-3.2-4.8-7.2-4.8-11.7v-37.9c0-4.6,1.6-8.5,4.9-11.8C189.3,212.4,193.2,210.8,197.7,210.8z
				 M203.4,227.1c0-1.7-0.6-3.1-1.7-4.2s-2.6-1.7-4.2-1.7c-1.7,0-3.1,0.6-4.3,1.7c-1.2,1.2-1.8,2.6-1.8,4.2v38
				c0,1.7,0.6,3.1,1.8,4.2c1.2,1.2,2.6,1.7,4.3,1.7c1.7,0,3.1-0.6,4.2-1.7s1.7-2.6,1.7-4.2V227.1z"/>
			<path d="M239.9,210.8c4.6,0,8.5,1.6,11.8,4.9c3.2,3.2,4.8,7.2,4.8,11.7v37.9c0,4.6-1.6,8.5-4.9,11.8c-3.2,3.2-7.2,4.8-11.7,4.8
				c-4.6,0-8.5-1.6-11.7-4.9c-3.2-3.2-4.8-7.2-4.8-11.7v-37.9c0-4.6,1.6-8.5,4.9-11.8C231.4,212.4,235.3,210.8,239.9,210.8z
				 M245.6,227.1c0-1.7-0.6-3.1-1.7-4.2c-1.2-1.2-2.6-1.7-4.2-1.7c-1.7,0-3.1,0.6-4.3,1.7c-1.2,1.2-1.8,2.6-1.8,4.2v38
				c0,1.7,0.6,3.1,1.8,4.2c1.2,1.2,2.6,1.7,4.3,1.7c1.7,0,3.1-0.6,4.2-1.7c1.2-1.2,1.7-2.6,1.7-4.2V227.1z"/>
			<path d="M276.1,259v22h-10.5v-69.4h10.5v24.7l12.8-24.7h11.2l-14.3,28.3l16.8,41.1h-12.3l-11-28.2L276.1,259z"/>
			<path d="M311.1,281v-69.4h29.8v10.5h-19.3V241h14.1v10.5h-14.1v18.9h19.3V281H311.1z"/>
			<path d="M364.5,211.7c5.8,0,10.1,1.6,12.8,4.8c2.4,2.8,3.6,6.7,3.6,11.7v10.1c0,4.9-1.9,9.1-5.6,12.5l7.7,30.3h-11.3l-6.3-26.1
				c-0.3,0-0.6,0-0.9,0h-6V281H348v-69.3H364.5z M370.8,228.4c0-4-2-6-6-6h-6.3v22.2h6.3c1.7,0,3.1-0.6,4.2-1.8
				c1.2-1.2,1.7-2.6,1.7-4.3V228.4z"/>
			<path d="M414.1,281.9c-4.6,0-8.5-1.6-11.8-4.8s-4.8-7.1-4.8-11.7v-37.9c0-4.6,1.6-8.5,4.9-11.8c3.2-3.2,7.2-4.8,11.7-4.8
				c4.6,0,8.5,1.6,11.7,4.9c3.2,3.2,4.8,7.2,4.8,11.7v7.9h-10.8v-8.1c0-1.7-0.6-3.1-1.8-4.3c-1.2-1.2-2.6-1.8-4.3-1.8
				c-1.7,0-3.1,0.6-4.2,1.8c-1.2,1.2-1.7,2.6-1.7,4.3v38c0,1.7,0.6,3.1,1.7,4.2s2.6,1.7,4.2,1.7c1.7,0,3.1-0.6,4.3-1.7
				c1.2-1.2,1.8-2.6,1.8-4.2v-9.6h10.8v9.7c0,4.6-1.6,8.5-4.9,11.7C422.5,280.3,418.6,281.9,414.1,281.9z"/>
			<path d="M467.7,281h-28.5v-69.3h10.5v58.9h18V281z"/>
			<path d="M491.5,281.8c-4.6,0-8.5-1.6-11.7-4.8c-3.2-3.2-4.8-7.1-4.8-11.7v-53.6h10.2v53.5c0,1.7,0.6,3.1,1.8,4.2
				c1.2,1.2,2.6,1.7,4.3,1.7s3.1-0.6,4.2-1.7c1.2-1.2,1.7-2.6,1.7-4.2v-53.5h10.9v53.6c0,4.6-1.6,8.6-4.9,11.7
				C500,280.2,496,281.8,491.5,281.8z"/>
			<path d="M517.4,281v-69.4H533c4.1,0,7.9,1.1,11.2,3.3c2.8,1.8,4.9,4.7,6.1,8.6c0.7,2.1,1,4.5,1,7.4c0,4.6-1.2,8.4-3.7,11.2
				c-1,1.2-2.3,2.1-3.7,2.7c2.3,0.9,4.3,2.6,5.9,5.3c1.1,1.8,1.9,4.1,2.4,6.9c0.3,1.4,0.4,3,0.4,4.8c0,4.4-0.8,8.1-2.5,11.2
				c-1.3,2.4-3.1,4.3-5.5,5.8c-2.7,1.6-5.3,2.4-7.9,2.4H517.4z M528.7,239.9h4.4c3.2,0,5.4-1.6,6.5-4.8c0.4-1.2,0.6-2.6,0.6-4.4
				c0-2.9-0.7-5.1-2.1-6.5c-1.3-1.4-3-2-5-2h-4.4V239.9z M528.7,270.7h4.4c3.5,0,6-1.8,7.4-5.5c0.5-1.3,0.7-2.7,0.7-4.3
				c0-3.9-0.7-6.7-2.2-8.5c-1.3-1.6-3.3-2.4-5.9-2.4h-4.4V270.7z"/>
		</g>
	</g>
</g>
</svg>
